<?xml version="1.0" standalone="no"?>
<!DOCTYPE svg PUBLIC "-//W3C//DTD SVG 20010904//EN"
 "http://www.w3.org/TR/2001/REC-SVG-20010904/DTD/svg10.dtd">
<svg version="1.0" xmlns="http://www.w3.org/2000/svg"
 width="400.000000pt" height="400.000000pt" viewBox="0 0 400.000000 400.000000"
 preserveAspectRatio="xMidYMid meet">
<metadata>
Created by potrace 1.11, written by Peter Selinger 2001-2013
</metadata>
<g transform="translate(0.000000,400.000000) scale(0.100000,-0.100000)"
fill="#000000" stroke="none">
<path d="M5 3989 c-4 -6 0 -9 11 -7 14 2 20 -4 22 -22 2 -13 11 -30 20 -36 16
-12 16 -13 -1 -19 -21 -9 -22 -31 -2 -42 10 -6 11 -13 5 -23 -7 -10 -10 -11
-10 -2 0 6 -3 12 -7 12 -5 0 -8 -20 -8 -45 0 -33 4 -45 15 -45 12 -1 11 -3 -3
-14 -10 -8 -14 -17 -9 -20 15 -9 2 -48 -13 -42 -18 7 -25 -16 -24 -77 0 -29 3
-46 6 -39 5 12 33 17 33 6 0 -4 -9 -15 -20 -24 -20 -17 -19 -50 2 -50 6 0 8 6
5 13 -3 7 4 19 14 25 18 11 19 10 17 -19 -1 -17 -6 -33 -11 -36 -4 -2 -5 -14
-1 -25 4 -13 1 -24 -7 -29 -10 -6 -8 -9 7 -9 16 0 22 -6 22 -25 0 -16 -6 -25
-17 -25 -10 0 -12 -3 -5 -8 6 -4 13 -20 16 -35 6 -33 -14 -47 -43 -28 -16 9
-19 8 -19 -9 0 -16 5 -19 33 -15 l32 5 -31 -11 -32 -11 -1 -103 c-1 -91 1
-104 17 -108 13 -4 13 -5 1 -6 -12 -1 -15 -20 -17 -113 -1 -80 2 -114 11 -120
9 -6 9 -10 -3 -17 -16 -11 -15 -13 15 -29 20 -11 20 -12 -2 -18 -25 -7 -30
-20 -10 -27 9 -4 9 -6 0 -6 -7 -1 -13 -5 -13 -10 0 -5 8 -7 19 -4 10 3 22 0
25 -6 4 -6 2 -11 -5 -11 -9 0 -10 -3 -3 -10 8 -8 19 -7 38 1 27 13 43 8 31
-10 -3 -6 -17 -11 -31 -11 -16 0 -24 -6 -24 -17 0 -10 -7 -30 -14 -45 -11 -21
-12 -28 -3 -29 7 0 2 -5 -11 -11 -21 -10 -22 -17 -22 -109 l0 -97 29 -7 c21
-4 30 -13 33 -33 8 -41 3 -85 -10 -90 -6 -2 -10 7 -10 20 4 60 -1 76 -22 71
-11 -3 -20 -12 -20 -20 0 -8 4 -12 9 -8 17 10 24 -18 7 -30 -15 -11 -16 -74
-14 -764 l3 -752 95 49 c52 27 122 65 155 83 33 19 80 43 105 53 25 10 54 22
65 27 23 9 146 32 150 27 1 -2 6 -36 9 -75 5 -49 4 -73 -3 -73 -6 0 -11 6 -11
13 0 8 -3 9 -8 1 -11 -16 -48 -34 -72 -34 -14 0 -22 -8 -26 -27 -8 -37 -82
-93 -151 -115 -51 -15 -93 -42 -93 -58 0 -4 16 -11 35 -14 19 -4 35 -11 35
-16 0 -17 104 -11 217 12 92 18 139 22 323 21 159 -1 233 -5 283 -17 38 -9 91
-16 118 -16 28 0 70 -5 95 -11 41 -11 50 -9 97 14 99 48 148 43 163 -18 4 -17
15 -24 45 -29 30 -5 44 -14 59 -39 21 -34 26 -62 10 -52 -5 3 -10 1 -10 -5 0
-6 -5 -8 -11 -4 -8 5 -8 1 0 -14 11 -21 -2 -42 -14 -22 -4 6 -13 7 -23 1 -22
-11 -62 4 -62 24 0 9 4 25 10 35 11 21 3 53 -11 44 -5 -3 -6 -10 -3 -16 5 -7
1 -9 -9 -5 -22 8 -35 -12 -39 -63 -2 -35 -8 -47 -26 -55 -12 -5 -20 -16 -17
-22 2 -7 0 -13 -4 -13 -5 0 -17 -3 -27 -7 -10 -4 -15 -2 -11 3 3 6 -8 8 -29 6
-19 -2 -44 -2 -57 2 -31 7 -50 48 -37 81 7 20 6 25 -5 25 -8 0 -15 -4 -15 -10
0 -5 -11 -10 -24 -10 -14 0 -28 -5 -32 -11 -4 -7 -21 -9 -40 -6 -23 4 -34 2
-34 -6 0 -7 -7 -4 -14 6 -17 22 -26 22 -26 -3 0 -21 -17 -25 -127 -34 -41 -2
-63 0 -63 6 0 6 -8 4 -18 -4 -9 -9 -23 -13 -29 -11 -7 3 -13 0 -13 -6 0 -6
-10 -15 -21 -22 -15 -8 -19 -8 -15 0 4 6 0 11 -11 11 -9 0 -28 12 -41 28 -22
25 -23 26 -19 4 6 -25 -8 -30 -17 -6 -4 9 -9 14 -12 11 -3 -3 2 -17 11 -31 16
-24 16 -26 -1 -33 -10 -4 -33 2 -56 14 -21 12 -38 17 -38 12 0 -5 -8 -9 -17
-10 -12 -1 -10 -4 7 -9 19 -6 20 -8 6 -9 -10 -1 -16 -6 -13 -14 3 -9 -5 -12
-29 -9 -27 3 -33 1 -28 -11 8 -22 -9 -28 -88 -29 -46 0 -66 -4 -55 -9 21 -12
163 -13 217 -1 291 65 347 74 426 69 104 -6 136 -25 132 -76 -2 -25 -10 -39
-26 -47 -28 -14 -71 -53 -83 -77 -17 -30 1 -41 27 -16 15 14 29 19 41 15 15
-6 12 -10 -16 -22 -26 -11 -32 -19 -28 -34 8 -32 -7 -23 -31 18 -21 36 -22 37
-22 10 0 -27 -19 -40 -22 -15 0 6 -2 17 -3 22 -2 6 -3 16 -4 23 -1 11 -4 10
-16 -2 -17 -17 -20 -30 -5 -21 5 3 10 2 10 -3 0 -9 -23 -22 -37 -22 -3 0 -3 9
0 19 3 13 1 18 -8 14 -9 -3 -15 6 -18 29 -3 20 -4 13 -3 -17 1 -49 2 -50 34
-53 36 -4 39 -9 14 -28 -14 -11 -5 -13 68 -13 69 -1 90 3 110 19 14 11 39 20
55 20 17 0 41 7 53 16 12 8 22 10 22 5 0 -6 -5 -11 -11 -11 -5 0 -7 -4 -4 -10
4 -6 -1 -7 -11 -3 -11 4 -15 3 -10 -5 3 -6 1 -14 -5 -18 -8 -5 -9 -3 -4 7 7
11 5 11 -11 -1 -10 -8 -21 -16 -23 -17 -2 -2 615 -3 1372 -3 l1377 0 -2 552
-3 552 -35 9 c-19 5 -44 17 -55 28 -12 10 -36 22 -55 25 -19 4 -48 13 -63 21
-15 8 -42 16 -60 17 -18 2 -45 9 -60 15 -15 6 -42 12 -59 13 -35 3 -51 30 -62
110 -4 26 -11 50 -16 53 -5 3 -16 28 -26 57 -9 28 -32 79 -50 113 -19 35 -34
66 -34 69 0 16 48 3 69 -19 32 -34 68 -42 89 -21 15 15 15 16 1 11 -8 -3 -28
-1 -43 5 -23 9 -26 13 -16 25 10 12 9 15 -4 15 -10 0 -24 7 -32 15 -17 17 -69
21 -59 5 3 -5 -2 -10 -12 -10 -15 1 -43 32 -128 145 -15 19 -15 19 -29 2 -8
-11 -18 -37 -21 -59 -9 -49 -62 -168 -75 -168 -6 0 -10 -9 -10 -21 0 -11 -4
-17 -10 -14 -6 3 -10 0 -10 -8 0 -17 -104 -117 -142 -136 -33 -17 -102 -9
-128 14 -23 21 -36 73 -21 88 8 8 18 7 35 -3 30 -15 56 -7 56 18 0 12 -12 22
-35 31 -19 7 -40 22 -46 33 -11 21 -12 21 -25 -3 l-13 -24 -2 30 c-1 24 -3 26
-6 7 -2 -12 -9 -20 -14 -17 -5 4 -9 -5 -9 -19 0 -42 -17 -38 -24 7 -6 37 -38
87 -57 87 -3 0 -9 -10 -13 -22 -4 -19 -7 -20 -18 -9 -10 11 -10 14 0 18 17 7
15 43 -3 43 -8 0 -15 8 -15 18 0 13 -2 14 -9 3 -7 -11 -11 -10 -20 7 -6 11
-11 22 -11 24 0 2 25 4 56 5 35 1 60 7 65 15 5 7 9 11 9 8 0 -3 7 -23 15 -45
l14 -40 1 33 c0 26 4 32 21 32 14 0 19 5 16 14 -6 16 19 69 52 112 21 27 22
27 18 6 -5 -19 -3 -21 9 -11 15 13 16 12 33 -56 16 -58 14 -120 -4 -135 -17
-14 -20 -40 -5 -40 6 0 10 4 10 9 0 5 31 24 69 41 41 19 74 42 81 56 8 13 17
24 21 24 4 0 10 19 14 43 14 94 14 94 47 94 l30 0 -4 -78 c-4 -63 -10 -86 -31
-118 -15 -22 -27 -44 -27 -49 0 -13 -33 -40 -54 -43 -11 -2 -23 -16 -27 -31
-6 -25 -4 -28 16 -28 41 0 106 89 121 165 4 22 29 72 57 112 27 39 46 76 43
82 -4 5 -2 12 3 15 12 8 6 115 -8 129 -6 6 -33 12 -59 13 -61 2 -92 12 -89 27
1 7 -7 11 -22 9 -13 -2 -27 2 -32 10 -6 10 -11 9 -24 -7 -14 -19 -15 -19 -8
-1 5 14 3 17 -7 11 -9 -5 -11 -4 -6 4 4 6 11 9 15 7 4 -3 30 7 57 21 37 20 61
26 101 24 37 -1 51 2 49 11 -8 48 -63 163 -121 253 -16 25 -13 23 19 -10 39
-41 86 -119 86 -143 0 -28 25 -4 30 28 5 33 7 35 70 48 36 7 84 14 107 15 24
1 48 9 55 18 22 26 66 50 73 39 9 -15 132 -1 184 21 24 11 55 19 70 19 14 0
35 7 45 15 12 9 15 15 7 15 -11 0 -11 3 0 16 12 15 11 16 -11 9 -14 -5 -34 -9
-45 -11 -11 -1 -22 -3 -25 -3 -3 -1 2 -6 10 -11 12 -8 9 -10 -12 -10 -16 0
-28 -4 -28 -10 0 -5 -22 -10 -48 -10 -26 0 -53 -5 -59 -11 -14 -14 -78 -7 -78
8 0 7 -6 18 -12 25 -10 9 -13 8 -13 -10 0 -17 -9 -24 -45 -33 -25 -6 -45 -17
-45 -24 0 -9 -19 -16 -52 -19 -88 -9 -127 -11 -128 -6 -3 13 66 150 75 150 31
1 85 23 85 35 0 12 -5 12 -35 -1 -41 -17 -45 -17 -45 -4 0 6 9 10 19 10 26 0
34 15 21 39 -8 17 -7 20 9 18 11 0 17 -5 15 -9 -5 -8 37 -28 57 -28 5 0 9 9 9
20 0 12 -5 17 -14 14 -7 -3 -16 2 -19 10 -4 10 -13 13 -24 10 -13 -4 -11 0 7
16 20 18 26 19 35 7 7 -9 21 -13 43 -9 31 4 33 3 26 -22 -5 -22 -3 -26 15 -26
22 0 28 14 10 26 -16 9 9 24 43 24 18 0 29 -6 33 -20 3 -11 10 -20 15 -20 4 0
7 -11 5 -25 -3 -30 4 -31 39 -4 16 13 35 19 47 16 12 -3 18 -3 15 0 -3 4 -1
12 5 20 9 10 15 11 26 1 12 -10 18 -9 30 7 7 11 22 19 32 17 19 -3 36 23 25
39 -9 15 23 10 40 -6 24 -24 29 -18 24 30 -5 39 -3 45 13 45 11 0 19 5 19 10
0 6 -12 10 -26 10 -37 0 -25 24 14 28 23 2 32 8 32 22 0 15 -6 17 -42 13 -32
-3 -39 -2 -28 6 13 9 11 11 -7 11 -12 0 -23 -5 -25 -11 -2 -7 -45 -17 -96 -23
-86 -11 -92 -11 -92 7 0 15 -3 16 -21 6 -17 -9 -23 -8 -30 2 -14 23 -10 29 17
29 14 0 23 4 19 10 -3 6 -17 10 -30 10 -13 0 -25 5 -27 11 -4 11 -34 5 -106
-22 -13 -5 -48 -9 -78 -9 -63 0 -94 -13 -94 -39 0 -28 11 -32 37 -15 16 10 29
12 36 6 7 -5 37 -6 72 -1 73 9 130 11 123 4 -5 -6 -113 -22 -210 -32 l-48 -5
0 -58 c0 -33 5 -60 11 -62 7 -2 8 -17 4 -41 -4 -21 -9 -36 -12 -34 -2 3 -8 57
-13 120 -6 80 -15 129 -29 160 -12 25 -21 55 -21 67 0 23 -82 157 -109 177 -9
7 -11 13 -6 13 6 0 4 4 -4 9 -8 5 -16 16 -17 25 -1 8 -12 29 -23 45 -12 16
-21 36 -21 44 0 9 -9 19 -20 22 -12 4 -43 29 -71 56 -27 27 -52 49 -55 49 -3
0 -19 9 -34 20 l-29 21 -16 -28 c-9 -15 -13 -19 -10 -8 18 51 18 54 -4 48 -12
-3 -23 0 -26 8 -3 8 -23 15 -48 16 -23 2 -61 8 -84 14 -23 6 -56 9 -72 7 -17
-2 -28 -1 -25 4 3 5 -14 6 -38 2 -24 -3 -52 -7 -63 -8 -11 -2 -27 -6 -36 -10
-9 -4 -20 -6 -25 -5 -5 1 -11 1 -14 0 -3 -2 -24 -4 -47 -6 -23 -2 -51 -8 -61
-14 -10 -5 -38 -12 -62 -16 -25 -4 -48 -11 -51 -17 -3 -5 -9 -9 -13 -9 -27 4
-38 -1 -32 -14 5 -15 0 -17 -41 -18 -13 0 -23 -6 -23 -13 0 -7 -6 -11 -14 -8
-8 3 -17 1 -20 -5 -4 -6 -14 -7 -24 -4 -16 6 -16 6 1 -11 21 -21 23 -33 2 -16
-10 9 -15 9 -15 1 0 -6 -7 -11 -15 -11 -8 0 -15 -6 -15 -14 0 -8 -6 -17 -13
-19 -9 -4 -9 -6 1 -6 7 -1 11 -5 8 -10 -3 -5 3 -11 14 -14 11 -3 20 -1 20 4 0
17 20 9 21 -8 0 -15 2 -15 9 2 8 19 9 19 9 1 1 -20 1 -20 16 0 14 19 14 19 15
-1 0 -15 2 -17 9 -6 5 7 14 10 20 6 7 -4 18 -1 26 5 8 6 19 9 25 5 6 -4 18 -1
27 7 9 7 14 8 10 2 -4 -7 -1 -17 7 -23 9 -8 15 -8 18 -2 5 17 46 1 43 -17 -1
-10 0 -12 2 -5 5 14 33 26 33 13 0 -5 7 -7 15 -4 9 4 15 0 15 -7 0 -9 5 -7 11
5 9 15 13 16 20 5 8 -11 12 -10 24 5 9 12 15 15 15 7 0 -8 8 -11 20 -8 11 3
20 1 20 -5 0 -5 5 -6 10 -3 6 3 10 0 10 -7 0 -10 2 -10 9 1 7 10 10 10 13 1 2
-7 19 -14 38 -15 47 -3 80 -14 80 -27 0 -6 7 -5 16 3 15 12 16 10 9 -21 -10
-46 -14 -49 -32 -22 -9 12 -22 22 -29 22 -8 0 -14 5 -14 10 0 19 -18 10 -23
-11 -3 -12 -10 -18 -16 -14 -7 4 -8 -1 -4 -12 8 -24 49 -63 66 -63 8 0 19 10
25 23 9 18 10 14 7 -28 -3 -30 -1 -44 4 -36 5 8 16 11 24 8 9 -3 18 -1 21 6 3
7 3 -8 0 -33 -10 -71 3 -43 21 45 28 142 23 134 47 86 11 -22 24 -41 30 -41 5
0 6 5 3 10 -3 6 -2 10 4 10 5 0 14 -6 18 -14 4 -8 33 -26 63 -41 30 -14 63
-30 72 -36 10 -5 24 -9 32 -9 21 0 217 -168 282 -240 30 -33 56 -73 60 -88 3
-15 8 -35 11 -44 2 -10 0 -18 -6 -18 -6 0 -11 11 -11 25 0 13 -9 32 -19 42
-10 10 -47 52 -81 93 -34 41 -86 92 -114 114 -28 21 -55 44 -59 52 -5 8 -12
12 -18 9 -5 -4 -9 -2 -9 3 0 15 -77 31 -89 19 -8 -8 -11 -8 -11 1 0 6 -7 9
-15 6 -8 -4 -26 1 -39 10 -22 14 -27 14 -54 0 -34 -17 -48 -55 -30 -83 7 -11
35 -32 63 -47 27 -16 59 -37 70 -49 41 -42 111 -122 130 -149 11 -16 26 -34
33 -41 6 -8 12 -19 12 -26 0 -14 -35 20 -60 57 -37 54 -140 160 -156 160 -54
3 -113 25 -137 52 -11 11 -25 18 -32 16 -10 -4 -12 1 -8 18 3 13 1 19 -4 13
-4 -6 -14 -10 -20 -9 -7 1 -17 2 -23 3 -5 0 -10 8 -10 17 0 8 -4 13 -10 9 -5
-3 -17 -1 -27 5 -29 16 -204 81 -225 83 -10 1 -18 4 -18 7 0 6 -53 30 -78 35
-9 2 -18 4 -19 5 -4 3 -14 6 -50 15 -18 4 -31 10 -29 14 5 7 -5 9 -61 13 -17
2 -29 6 -27 9 2 3 -17 15 -41 25 -25 10 -45 23 -45 29 0 5 -5 3 -10 -5 -5 -8
-10 -10 -10 -3 0 6 -8 10 -17 8 -10 -1 -27 2 -38 8 -11 6 -23 10 -27 9 -5 -1
-8 3 -8 9 0 5 -8 9 -17 8 -10 -1 -25 1 -33 4 -8 3 -28 8 -45 11 -16 4 -37 8
-45 10 -8 3 -26 5 -38 5 -15 1 -26 9 -29 21 -6 23 -32 26 -52 8 -8 -7 -11 -8
-8 -2 8 14 -69 18 -78 4 -3 -6 2 -10 12 -10 24 0 188 -39 233 -55 188 -69 459
-192 505 -230 l20 -16 -20 9 c-37 17 -110 50 -166 75 -30 14 -80 35 -109 47
-30 12 -78 32 -106 45 -28 13 -75 31 -105 40 -217 67 -291 78 -394 57 l-50
-10 80 -1 c121 -3 183 -10 260 -33 72 -20 241 -90 330 -135 28 -13 113 -57
190 -96 77 -38 143 -75 147 -81 4 -6 8 -7 8 -3 0 5 7 1 16 -7 8 -9 22 -16 31
-16 10 0 13 -6 9 -16 -3 -8 -2 -12 4 -9 6 3 23 -2 40 -12 31 -18 39 -33 18
-33 -6 0 -3 -6 7 -14 11 -8 23 -12 27 -10 5 3 8 -2 8 -10 0 -10 6 -13 15 -10
9 4 15 0 15 -9 0 -8 7 -17 15 -21 11 -4 14 -14 9 -33 -4 -20 -3 -24 4 -14 6 8
19 12 31 8 12 -3 21 0 21 6 0 8 4 7 9 -2 6 -8 16 -11 31 -6 15 5 20 4 16 -4
-4 -6 0 -11 11 -12 10 -1 27 -2 37 -3 11 0 21 -8 24 -16 5 -13 3 -13 -13 0
-17 14 -18 13 -12 -3 4 -12 1 -20 -11 -24 -9 -4 -23 -13 -30 -20 -50 -49 -235
-147 -331 -175 -87 -25 -225 -26 -325 -2 -42 10 -76 21 -76 26 0 4 -8 8 -18 8
-39 0 -274 126 -457 245 -278 181 -355 221 -515 265 -139 39 -239 35 -345 -14
-100 -46 -169 -142 -163 -230 2 -24 6 -42 10 -40 4 2 9 -4 12 -13 7 -22 66
-63 89 -63 9 0 17 -4 17 -10 0 -5 8 -7 18 -4 11 4 13 3 5 -3 -7 -5 -10 -21 -7
-37 3 -17 1 -25 -6 -21 -5 3 -10 2 -10 -4 0 -5 5 -13 10 -16 15 -9 12 -23 -6
-27 -14 -2 -17 -18 -19 -78 -1 -41 -5 -89 -8 -106 -4 -23 -1 -37 14 -53 11
-11 15 -21 9 -21 -5 0 -10 -9 -10 -19 0 -11 -5 -21 -11 -23 -16 -5 0 -35 23
-41 20 -6 20 -3 15 107 -3 83 -1 127 10 167 8 30 16 72 18 94 1 22 4 41 5 43
3 3 7 18 9 33 1 8 17 9 51 5 32 -4 50 -3 50 4 0 5 8 10 18 10 9 0 78 16 152
34 93 23 139 31 147 24 7 -6 13 -7 13 -4 0 4 6 1 13 -5 16 -15 19 -89 4 -89
-7 0 -5 -5 3 -11 10 -7 -16 -8 -87 -3 -56 3 -130 3 -166 0 l-64 -7 -2 -65 c-1
-36 2 -71 7 -77 5 -7 12 -50 16 -97 8 -99 27 -171 59 -217 19 -28 83 -68 141
-87 13 -5 17 -12 12 -29 -4 -12 -12 -64 -18 -115 -12 -91 -9 -128 19 -256 5
-24 3 -28 -10 -23 -10 4 -14 1 -12 -6 2 -7 -19 -30 -48 -52 -144 -110 -239
-175 -249 -169 -7 4 -8 3 -4 -4 10 -16 -17 -15 -32 0 -9 9 -15 9 -24 -1 -11
-11 -10 -12 1 -6 9 5 12 4 7 -3 -9 -15 -38 -3 -29 12 3 6 2 8 -2 3 -11 -10
-14 -48 -3 -41 4 3 5 -2 2 -11 -4 -9 -21 -23 -38 -32 -27 -14 -30 -14 -18 0 9
10 10 17 2 22 -5 3 -10 1 -10 -4 0 -6 -7 -11 -15 -11 -13 0 -15 7 -9 35 4 23
2 35 -5 35 -6 0 -11 -3 -11 -7 -1 -5 -10 -19 -21 -32 -16 -19 -22 -22 -32 -12
-9 10 -8 14 6 22 21 12 22 29 3 29 -8 0 -18 5 -22 12 -4 7 -3 8 5 4 6 -4 24
-1 40 7 22 11 28 11 25 2 -3 -8 5 -12 25 -11 35 1 35 1 21 26 -8 15 -6 17 10
13 14 -4 20 0 20 10 0 23 -21 67 -32 67 -5 0 -6 -5 -3 -10 3 -6 -5 -14 -19
-20 -14 -5 -26 -12 -26 -15 0 -4 5 -3 10 0 5 3 10 2 10 -4 0 -17 -15 -20 -40
-6 -18 10 -28 10 -42 2 -14 -9 -21 -8 -35 7 -17 17 -17 18 3 12 14 -4 24 -2
27 8 8 20 -3 57 -17 55 -23 -4 -46 14 -46 35 l0 21 18 -22 c12 -16 32 -25 67
-30 47 -6 49 -5 33 10 -9 9 -26 17 -37 17 -34 0 -24 18 12 23 l32 4 -36 1
c-23 1 -39 8 -43 18 -5 13 2 15 41 14 62 -3 73 -2 73 8 0 5 -6 9 -12 9 -57 4
-119 13 -128 18 -8 5 -7 11 1 21 7 8 12 31 13 51 1 33 4 37 41 49 29 8 33 12
17 13 -14 1 -20 5 -17 12 4 6 -1 17 -11 25 -18 14 -17 15 9 9 32 -6 37 10 6
18 -15 4 -20 11 -15 22 4 11 2 14 -6 9 -8 -5 -9 -2 -5 9 5 12 -2 19 -26 27
l-32 10 36 -3 c22 -2 36 2 36 9 0 7 -6 10 -14 7 -7 -3 -13 -1 -13 5 0 5 7 12
15 16 8 3 15 10 15 16 0 6 -4 9 -9 6 -5 -4 -22 7 -38 24 -15 16 -32 30 -38 30
-6 0 -10 13 -10 30 -1 18 4 30 12 30 7 0 13 6 14 13 0 6 2 22 5 35 2 12 -1 22
-6 22 -6 0 -10 -4 -10 -10 0 -5 -7 -10 -15 -10 -23 0 -21 -115 2 -129 19 -11
19 -11 -29 -15 -7 -1 -13 6 -13 14 0 15 -13 30 -28 30 -5 0 -6 -4 -2 -9 3 -5
0 -13 -6 -17 -7 -4 -9 -3 -6 3 4 6 0 16 -8 23 -18 15 -18 20 -15 -120 1 -63
-1 -112 -4 -109 -3 3 -8 62 -11 130 -4 109 -7 126 -25 141 -22 18 -26 29 -9
26 13 -3 33 55 21 60 -4 1 -6 20 -4 42 3 33 0 45 -19 62 -22 18 -22 20 -4 14
20 -6 20 -2 17 141 -2 81 -6 150 -8 153 -3 2 -9 -2 -14 -10 -6 -8 -10 -11 -10
-7 0 5 -7 2 -15 -6 -11 -12 -13 -31 -10 -79 3 -34 10 -64 15 -66 6 -2 10 -8
10 -13 0 -6 -4 -7 -10 -4 -5 3 -10 -1 -10 -9 0 -9 5 -16 10 -16 6 0 10 -7 10
-15 0 -8 -4 -15 -10 -15 -5 0 -8 -53 -6 -135 2 -100 0 -135 -9 -135 -8 0 -12
19 -12 55 0 43 -4 58 -19 69 -17 13 -17 16 -3 33 13 15 16 42 15 143 -3 203
-17 390 -30 383 -6 -4 -5 1 3 10 11 14 12 112 7 569 -3 304 -6 581 -6 616 1
56 -1 62 -19 62 -24 0 -27 -22 -11 -65 7 -17 7 -24 0 -20 -6 3 -10 -1 -10 -9
0 -8 8 -20 18 -25 15 -10 15 -12 2 -23 -16 -14 -16 15 -7 -617 3 -189 2 -340
-3 -335 -4 5 -11 178 -14 384 -4 206 -9 429 -13 495 -6 140 -6 130 1 178 l5
37 -44 0 c-24 0 -47 -5 -50 -11z m52 -754 c-4 -8 -14 -15 -23 -15 -16 0 -16 2
1 20 20 22 31 20 22 -5z m3 -42 c0 -5 -5 -15 -10 -23 -8 -12 -10 -11 -10 8 0
12 5 22 10 22 6 0 10 -3 10 -7z m2655 -56 c2 -31 -1 -49 -10 -57 -12 -10 -13
-7 -5 19 5 19 5 31 -2 33 -5 2 -7 15 -3 31 10 37 15 29 20 -26z m-2631 -192
c-4 -8 -8 -15 -10 -15 -2 0 -4 7 -4 15 0 8 4 15 10 15 5 0 7 -7 4 -15z m43
-97 c-3 -8 -6 -5 -6 6 -1 11 2 17 5 13 3 -3 4 -12 1 -19z m5 -91 c-9 -19 -18
6 -13 40 l5 38 6 -35 c3 -19 4 -38 2 -43z m3778 6 c-1 -27 -1 -27 -15 -9 -14
19 -12 36 6 36 5 0 9 -12 9 -27z m-63 -25 c-3 -8 -6 -5 -6 6 -1 11 2 17 5 13
3 -3 4 -12 1 -19z m-100 -9 c-10 -6 -24 -8 -31 -6 -8 3 -25 -1 -40 -8 -14 -8
-26 -12 -26 -10 0 2 -13 0 -29 -5 -23 -6 -29 -5 -25 5 5 12 83 32 139 33 26 1
27 0 12 -9z m-884 -29 c3 -11 3 -20 1 -20 -2 0 -8 9 -14 20 -6 11 -7 20 -2 20
6 0 12 -9 15 -20z m-2763 -64 c0 -3 -4 -8 -10 -11 -5 -3 -10 -1 -10 4 0 6 5
11 10 11 6 0 10 -2 10 -4z m-13 -48 c-3 -8 -6 -5 -6 6 -1 11 2 17 5 13 3 -3 4
-12 1 -19z m53 2 c0 -5 -5 -10 -11 -10 -5 0 -7 5 -4 10 3 6 8 10 11 10 2 0 4
-4 4 -10z m2960 -115 c0 -5 -5 -3 -10 5 -5 8 -10 20 -10 25 0 6 5 3 10 -5 5
-8 10 -19 10 -25z m-2883 -52 c-3 -10 -5 -4 -5 12 0 17 2 24 5 18 2 -7 2 -21
0 -30z m928 17 c-4 -6 -11 -8 -16 -5 -17 11 -9 -26 11 -47 20 -22 28 -54 10
-43 -6 4 -8 -7 -6 -27 4 -35 -28 -205 -47 -250 -12 -28 -37 -46 -37 -27 0 6
-7 9 -15 6 -8 -4 -17 -1 -21 5 -4 6 -3 8 4 4 6 -3 14 -1 17 5 7 10 -32 54 -47
54 -5 0 -8 4 -8 10 0 16 34 12 42 -5 4 -8 5 50 2 130 -3 80 -6 155 -6 168 0
26 -18 30 -19 5 -3 -46 4 -99 13 -104 10 -7 7 -159 -4 -159 -12 0 -16 32 -17
130 -2 99 -17 154 -39 145 -7 -3 -10 0 -7 5 3 6 49 10 101 10 62 0 93 -4 89
-10z m-1115 -60 c0 -5 -5 -10 -11 -10 -5 0 -7 5 -4 10 3 6 8 10 11 10 2 0 4
-4 4 -10z m110 -144 c0 -17 -14 -29 -23 -20 -8 8 3 34 14 34 5 0 9 -6 9 -14z
m99 5 c7 -5 10 -14 7 -20 -10 -16 -29 -13 -23 3 3 8 1 17 -6 20 -7 2 -7 5 -2
5 6 0 16 -3 24 -8z m738 -53 c-3 -7 -5 -2 -5 12 0 14 2 19 5 13 2 -7 2 -19 0
-25z m-847 -2 c0 -3 -4 -8 -10 -11 -5 -3 -10 -1 -10 4 0 6 5 11 10 11 6 0 10
-2 10 -4z m110 -6 c0 -5 -5 -10 -11 -10 -5 0 -7 5 -4 10 3 6 8 10 11 10 2 0 4
-4 4 -10z m-80 -60 c0 -5 -9 -10 -20 -10 -11 0 -20 5 -20 10 0 6 9 10 20 10
11 0 20 -4 20 -10z m2610 -49 c0 -21 -17 -37 -27 -27 -3 3 -1 12 5 19 7 8 9
17 5 20 -3 4 -1 7 5 7 7 0 12 -9 12 -19z m-2565 -55 c0 -32 -20 -35 -20 -3 0
27 4 39 14 33 4 -3 7 -16 6 -30z m39 -31 c-4 -8 -7 -15 -9 -15 -2 0 -5 7 -9
15 -3 9 0 15 9 15 9 0 12 -6 9 -15z m182 -22 c-10 -10 -19 5 -10 18 6 11 8 11
12 0 2 -7 1 -15 -2 -18z m2674 -59 c0 -8 -7 -14 -15 -14 -8 0 -15 2 -15 4 0 2
-3 11 -6 19 -4 12 0 14 15 10 12 -3 21 -12 21 -19z m-1718 -21 c4 -83 -13
-163 -34 -163 -11 0 -9 19 6 62 10 27 10 40 2 49 -8 9 -7 10 4 4 13 -8 13 -6
2 8 -9 10 -11 27 -7 47 9 42 25 38 27 -7z m-1176 -40 c-13 -13 -24 13 -18 42
l6 30 9 -33 c6 -18 7 -35 3 -39z m1104 -73 c0 -5 -2 -10 -4 -10 -3 0 -8 5 -11
10 -3 6 -1 10 4 10 6 0 11 -4 11 -10z m-33 -22 c-3 -8 -6 -5 -6 6 -1 11 2 17
5 13 3 -3 4 -12 1 -19z m-977 8 c0 -3 -4 -8 -10 -11 -5 -3 -10 -1 -10 4 0 6 5
11 10 11 6 0 10 -2 10 -4z m-220 -26 c0 -5 -5 -10 -11 -10 -5 0 -7 5 -4 10 3
6 8 10 11 10 2 0 4 -4 4 -10z m212 -32 c-9 -9 -12 -7 -12 12 0 19 3 21 12 12
9 -9 9 -15 0 -24z m974 -25 c-11 -11 -24 9 -18 29 l5 22 9 -24 c5 -12 6 -25 4
-27z m107 -8 c-3 -8 -10 -15 -15 -15 -7 0 -6 5 1 13 6 8 7 18 3 22 -4 5 -2 5
5 1 7 -4 10 -13 6 -21z m1257 -15 c0 -5 -2 -10 -4 -10 -3 0 -8 5 -11 10 -3 6
-1 10 4 10 6 0 11 -4 11 -10z m-2330 -15 c0 -8 -7 -15 -15 -15 -9 0 -12 6 -9
15 4 8 10 15 15 15 5 0 9 -7 9 -15z m2420 -85 c0 -11 -4 -20 -9 -20 -5 0 -7 9
-4 20 3 11 7 20 9 20 2 0 4 -9 4 -20z m71 -46 c-16 -20 -21 -22 -21 -10 0 9 7
19 15 22 8 4 15 14 16 23 0 10 2 11 6 4 2 -7 -5 -25 -16 -39z m-2326 -23 c3
-5 1 -12 -5 -16 -5 -3 -10 1 -10 9 0 18 6 21 15 7z m-147 -18 c6 -19 -25 -16
-32 3 -4 11 -1 14 11 12 9 -2 18 -9 21 -15z m212 -63 c0 -5 -12 -10 -27 -10
-22 0 -25 2 -13 10 20 13 40 13 40 0z m2473 -32 c-4 -13 -8 -62 -8 -110 0 -83
-1 -87 -16 -67 -16 22 -16 21 -24 -17 -5 -21 -7 -43 -6 -47 1 -5 -3 -6 -9 -2
-5 3 -10 1 -10 -5 0 -6 -4 -9 -9 -5 -6 3 -13 -11 -16 -32 -11 -64 -16 -75 -31
-69 -8 3 -14 -1 -14 -9 0 -7 -5 -17 -11 -21 -8 -4 -9 1 -5 17 4 14 -4 7 -20
-19 -47 -76 -36 -38 24 79 63 123 88 189 98 258 5 31 13 45 25 48 11 3 19 9
19 14 0 5 5 9 11 9 6 0 7 -8 2 -22z m-83 -78 c0 -5 -5 -10 -11 -10 -5 0 -7 5
-4 10 3 6 8 10 11 10 2 0 4 -4 4 -10z m-2420 -24 c0 -3 -4 -8 -10 -11 -5 -3
-10 -1 -10 4 0 6 5 11 10 11 6 0 10 -2 10 -4z m392 -21 c3 -14 2 -25 -1 -25
-10 0 -30 37 -24 44 12 12 21 6 25 -19z m2010 -18 c-6 -12 -16 -40 -22 -62
-12 -49 -87 -185 -101 -185 -5 0 -15 -14 -21 -31 -7 -20 -15 -28 -25 -25 -8 3
-12 2 -8 -3 8 -13 -5 -42 -16 -35 -5 3 -6 10 -3 16 4 7 2 8 -4 4 -8 -5 -8 -13
0 -31 6 -13 14 -22 19 -20 4 3 5 -4 2 -15 -3 -11 -9 -20 -14 -20 -5 0 -6 6 -3
14 3 7 -2 16 -10 19 -24 9 -19 31 16 84 57 86 64 98 77 130 7 17 19 34 26 37
7 2 19 22 25 43 17 53 63 129 68 114 2 -7 -1 -23 -6 -34z m-2358 -11 c-3 -8
-13 -17 -22 -21 -13 -5 -13 -2 3 15 21 24 26 25 19 6z m-459 -36 c3 -5 2 -10
-4 -10 -5 0 -13 5 -16 10 -3 6 -2 10 4 10 5 0 13 -4 16 -10z m416 -23 c-10 -9
-11 -8 -5 6 3 10 9 15 12 12 3 -3 0 -11 -7 -18z m23 -29 c-3 -4 0 -8 5 -8 6 0
11 -5 11 -12 0 -6 -7 -4 -18 5 -10 10 -22 14 -27 10 -4 -5 -5 -3 -2 3 3 6 13
11 21 11 8 0 13 -4 10 -9z m328 -124 c-3 -20 1 -33 10 -36 16 -7 58 8 58 21 0
5 9 11 21 14 13 4 19 1 16 -6 -3 -8 10 -12 42 -11 30 1 59 -5 81 -18 19 -10
27 -17 18 -14 -9 3 -22 -2 -30 -11 -11 -14 -10 -15 12 -8 14 4 32 14 41 21 17
15 55 19 61 7 2 -5 21 -17 43 -28 39 -20 133 -96 147 -120 5 -9 0 -11 -17 -7
-18 3 -25 0 -25 -12 0 -9 -11 -21 -24 -25 -13 -5 -26 -17 -30 -26 -3 -9 -2
-14 2 -11 4 2 14 1 22 -5 24 -14 -70 -11 -123 5 -25 7 -56 11 -70 9 -14 -3
-48 6 -81 22 -30 14 -60 24 -65 21 -5 -4 -12 -2 -15 3 -3 4 -20 12 -38 16 -18
4 -35 9 -38 10 -71 27 -99 51 -93 76 3 11 0 26 -7 34 -28 33 18 114 63 111 19
-1 22 -6 19 -32z m29 -27 c-13 -13 -15 21 -3 50 6 15 8 13 10 -11 2 -16 -1
-33 -7 -39z m374 15 c-3 -3 -11 0 -18 7 -9 10 -8 11 6 5 10 -3 15 -9 12 -12z
m1640 -50 c-14 -27 -25 -55 -25 -62 0 -6 -4 -9 -9 -5 -5 3 -12 1 -16 -5 -3 -5
-2 -10 3 -10 6 0 8 -9 5 -19 -6 -25 -43 -24 -43 1 0 10 5 18 10 18 6 0 15 11
20 25 5 14 13 25 17 25 5 0 19 20 33 45 33 60 37 50 5 -13z m-1548 -3 c58 -32
96 -85 69 -95 -15 -6 -146 117 -146 137 0 6 5 5 13 -1 6 -6 36 -25 64 -41z
m1323 -23 c0 -3 -4 -8 -10 -11 -5 -3 -10 -1 -10 4 0 6 5 11 10 11 6 0 10 -2
10 -4z m-1106 -27 c14 -11 30 -17 36 -14 18 11 10 -12 -11 -30 -20 -19 -20
-18 -44 10 -41 51 -30 72 19 34z m1086 -3 c0 -3 -4 -8 -10 -11 -5 -3 -10 -1
-10 4 0 6 5 11 10 11 6 0 10 -2 10 -4z m34 -57 c-8 -14 -21 -10 -28 7 -10 25
5 40 20 19 7 -10 11 -22 8 -26z m-77 1 c-13 -22 -27 -26 -27 -10 0 15 23 39
32 33 4 -2 2 -13 -5 -23z m-1087 -3 c0 -8 9 -22 20 -32 28 -25 25 -36 -7 -32
-24 3 -28 9 -31 40 -1 20 2 37 8 37 5 0 10 -6 10 -13z m1115 -53 c-28 -21 -40
-1 -19 31 l18 28 10 -23 c8 -18 6 -25 -9 -36z m58 21 c-3 -9 -8 -14 -10 -11
-3 3 -2 9 2 15 9 16 15 13 8 -4z m-943 -1 c0 -18 -46 -84 -56 -80 -6 2 -11 -3
-10 -11 1 -21 -79 -83 -107 -83 l-21 0 22 20 c12 12 22 27 22 34 0 7 11 18 25
24 14 7 28 19 31 27 4 8 15 15 25 15 12 0 19 7 19 20 0 10 8 24 18 29 20 12
32 14 32 5z m768 -59 c-29 -30 -54 -50 -56 -46 -4 11 92 109 101 104 4 -3 -16
-29 -45 -58z m-1880 -3 c15 -28 15 -32 -2 -32 -19 0 -33 19 -41 60 -7 35 -7
35 11 14 11 -11 25 -30 32 -42z m212 48 c8 -5 11 -10 5 -10 -5 0 -17 5 -25 10
-8 5 -10 10 -5 10 6 0 17 -5 25 -10z m70 -47 c0 -7 -39 17 -46 28 -3 6 5 3 20
-6 14 -10 26 -19 26 -22z m1733 12 c-24 -32 -38 -32 -17 0 9 14 20 25 26 25 5
0 1 -11 -9 -25z m-68 -15 c-6 -9 -9 -9 -16 1 -10 17 0 34 13 21 6 -6 7 -16 3
-22z m-35 -26 c0 -16 -4 -23 -12 -18 -6 4 -8 3 -4 -4 3 -6 2 -13 -3 -16 -16
-10 -18 28 -3 47 20 23 22 22 22 -9z m120 23 c0 -2 -10 -12 -22 -23 l-23 -19
19 23 c18 21 26 27 26 19z m-1634 -55 c-5 -4 -66 26 -66 33 0 3 16 -3 35 -12
19 -9 33 -18 31 -21z m1564 28 c0 -5 -5 -10 -11 -10 -5 0 -7 5 -4 10 3 6 8 10
11 10 2 0 4 -4 4 -10z m-113 -66 c-24 -22 -28 -23 -25 -8 5 29 31 55 42 44 7
-7 1 -19 -17 -36z m73 26 c0 -5 -5 -10 -11 -10 -5 0 -7 5 -4 10 3 6 8 10 11
10 2 0 4 -4 4 -10z m-162 -25 c-3 -3 -9 2 -12 12 -6 14 -5 15 5 6 7 -7 10 -15
7 -18z m-45 -28 c-20 -12 -22 -6 -11 23 10 24 11 24 18 5 5 -13 3 -23 -7 -28z
m160 9 c-10 -13 -20 -22 -22 -20 -4 4 29 44 36 44 2 0 -4 -11 -14 -24z m-184
-89 c-2 -1 -13 -9 -24 -17 -19 -14 -19 -14 -6 3 7 9 18 17 24 17 6 0 8 -1 6
-3z m-9 -127 c0 -12 -8 -12 -35 0 -18 8 -17 9 8 9 15 1 27 -3 27 -9z m1459
-82 c2 -45 -5 -50 -12 -8 -3 14 -6 30 -7 35 -4 17 0 26 8 21 4 -2 9 -24 11
-48z m54 30 c7 -24 -8 -48 -29 -48 -11 0 -13 14 -5 63 2 17 29 5 34 -15z
m-2553 2 c0 -5 -7 -10 -16 -10 -8 0 -12 5 -9 10 3 6 10 10 16 10 5 0 9 -4 9
-10z m30 -4 c0 -3 -4 -8 -10 -11 -5 -3 -10 -1 -10 4 0 6 5 11 10 11 6 0 10 -2
10 -4z m2380 -19 c0 -7 12 -13 28 -12 20 0 28 -5 30 -21 6 -40 -51 -74 -62
-36 -14 51 -17 82 -7 82 6 0 11 -6 11 -13z m-225 -151 c6 -14 4 -17 -5 -14
-14 4 -41 114 -31 124 3 3 11 -17 17 -43 6 -26 15 -56 19 -67z m198 107 c12
-21 16 -63 7 -63 -5 0 -10 8 -10 19 0 20 -23 45 -33 35 -3 -3 -1 -19 3 -35 5
-17 5 -29 -1 -29 -5 0 -11 11 -15 25 -3 14 -13 25 -21 25 -15 0 -15 -12 2 -52
5 -13 3 -18 -8 -18 -9 0 -17 14 -22 36 -7 42 -6 44 37 54 45 11 56 11 61 3z
m-336 -48 c1 -15 0 -15 -3 -3 -3 9 -13 19 -22 22 -12 3 -12 4 3 3 12 -1 21
-10 22 -22z m218 -12 c8 -20 14 -37 13 -38 -2 -2 -18 -6 -36 -10 -26 -5 -33
-3 -38 12 -3 10 -10 26 -15 35 -5 11 -5 19 1 23 6 4 15 -7 21 -24 16 -45 43
-42 35 4 -9 45 0 45 19 -2z m-1953 1 c10 -21 9 -30 -5 -52 -9 -15 -23 -26 -32
-26 -8 1 -12 -2 -9 -7 3 -5 -4 -9 -15 -9 -10 0 -22 -6 -24 -12 -4 -10 -8 -10
-14 -2 -4 6 -19 15 -32 19 -28 9 -16 24 31 39 20 7 34 19 36 31 9 49 46 60 64
19z m1668 6 c0 -5 -5 -10 -11 -10 -5 0 -7 5 -4 10 3 6 8 10 11 10 2 0 4 -4 4
-10z m158 -17 c12 -22 -2 -61 -23 -69 -19 -8 -45 22 -44 51 0 15 4 11 15 -12
8 -18 18 -33 24 -33 16 0 23 49 10 65 -8 10 -9 15 -2 15 6 0 15 -8 20 -17z
m-298 -23 c-6 -11 -13 -20 -16 -20 -2 0 0 9 6 20 6 11 13 20 16 20 2 0 0 -9
-6 -20z m127 6 c-3 -8 4 -24 15 -36 16 -17 28 -21 50 -16 18 3 27 2 23 -4 -3
-6 -22 -10 -42 -10 -27 0 -36 5 -40 21 -4 13 -8 17 -13 9 -4 -6 -7 3 -8 19 0
17 4 31 10 31 5 0 8 -6 5 -14z m-104 -21 c-3 -9 -8 -14 -10 -11 -3 3 -2 9 2
15 9 16 15 13 8 -4z m-1718 -56 c4 -6 -1 -17 -11 -24 -14 -11 -15 -14 -4 -15
22 0 -1 -17 -35 -24 -22 -5 -26 -4 -15 4 13 8 13 10 -2 10 -20 0 -22 8 -8 30
6 9 10 11 10 3 0 -7 7 -10 15 -7 8 4 15 12 15 20 0 16 26 19 35 3z m1685 -5
c0 -2 -7 -4 -15 -4 -8 0 -15 4 -15 10 0 5 7 7 15 4 8 -4 15 -8 15 -10z m40 7
c0 -5 -7 -14 -15 -21 -16 -14 -18 -10 -9 14 6 17 24 22 24 7z m-1930 -11 c0
-5 -4 -10 -10 -10 -5 0 -10 5 -10 10 0 6 5 10 10 10 6 0 10 -4 10 -10z m1960
3 c-1 -14 -30 -47 -36 -41 -6 7 17 48 28 48 5 0 8 -3 8 -7z"/>
<path d="M1051 2334 c0 -11 3 -14 6 -6 3 7 2 16 -1 19 -3 4 -6 -2 -5 -13z"/>
<path d="M2868 1067 c-15 -31 -15 -33 3 -34 11 -1 19 3 19 8 0 6 -4 7 -10 4
-13 -8 -13 1 1 27 6 11 9 22 7 24 -3 2 -11 -11 -20 -29z"/>
<path d="M814 1013 c-3 -10 -10 -29 -15 -43 l-10 -25 21 25 c18 23 27 60 15
60 -3 0 -8 -8 -11 -17z"/>
<path d="M3806 351 c-4 -6 -3 -18 2 -27 6 -11 11 -13 16 -5 4 6 3 18 -2 27 -6
11 -11 13 -16 5z"/>
<path d="M3703 284 c-9 -23 11 -38 26 -20 13 16 7 36 -10 36 -5 0 -12 -7 -16
-16z"/>
<path d="M203 3927 c-2 -39 -7 -73 -13 -75 -14 -5 -13 -33 1 -29 6 1 14 -4 16
-10 3 -7 -2 -13 -11 -13 -18 0 -21 -21 -5 -37 8 -8 8 -13 0 -17 -14 -9 -15
-182 -1 -191 6 -3 10 -14 10 -23 0 -15 -2 -15 -10 -2 -6 9 -10 10 -10 3 0 -6
4 -15 10 -18 6 -4 5 -17 -3 -38 -15 -39 -11 -77 9 -77 19 0 18 -26 -1 -34 -12
-4 -15 -31 -14 -158 0 -95 4 -145 9 -133 7 17 9 15 9 -12 1 -18 -3 -33 -9 -33
-6 0 -10 -87 -9 -242 0 -224 1 -241 16 -220 8 12 24 22 34 22 17 0 18 12 17
185 -2 173 -3 185 -21 185 -18 0 -18 1 1 24 18 23 19 40 15 263 -2 131 -8 254
-12 273 -4 19 -4 49 1 65 5 17 6 100 3 185 -2 85 -5 172 -5 193 0 23 -5 37
-12 37 -9 0 -14 -23 -15 -73z m2 -302 c-3 -42 -15 -60 -15 -22 0 23 9 57 15
57 1 0 1 -16 0 -35z m0 -345 c3 -5 1 -10 -4 -10 -6 0 -11 5 -11 10 0 6 2 10 4
10 3 0 8 -4 11 -10z m3 -92 l0 -53 -9 44 c-7 38 -5 61 5 61 2 0 3 -24 4 -52z
m12 -283 c0 -19 -4 -35 -8 -35 -4 0 -6 16 -4 35 2 19 6 35 8 35 2 0 4 -16 4
-35z m0 -135 c0 -5 -2 -10 -4 -10 -3 0 -8 5 -11 10 -3 6 -1 10 4 10 6 0 11 -4
11 -10z m-23 -162 c-3 -7 -5 -2 -5 12 0 14 2 19 5 13 2 -7 2 -19 0 -25z"/>
<path d="M261 3943 l1 -58 14 45 c15 46 13 70 -6 70 -6 0 -10 -24 -9 -57z"/>
<path d="M300 3989 c0 -5 5 -7 10 -4 6 3 10 8 10 11 0 2 -4 4 -10 4 -5 0 -10
-5 -10 -11z"/>
<path d="M377 3667 c2 -183 3 -401 3 -484 0 -98 3 -153 10 -153 5 0 10 -7 10
-16 0 -8 -4 -12 -10 -9 -6 4 -10 -13 -11 -42 0 -26 -2 -62 -3 -80 -3 -25 1
-33 18 -38 21 -7 21 -8 -2 -12 -17 -3 -22 -9 -17 -21 7 -19 7 -304 1 -401 -3
-38 -2 -53 2 -36 6 24 12 29 30 27 20 -3 22 1 22 52 0 34 -5 57 -12 60 -10 5
-10 7 0 12 6 3 12 12 12 20 0 9 -3 13 -7 11 -6 -4 -14 447 -13 732 0 13 -5 30
-10 37 -7 8 -7 14 -1 18 12 8 13 404 0 412 -5 3 -9 15 -8 27 1 20 2 20 9 -3 5
-17 8 0 8 55 0 53 -2 73 -8 60 -7 -16 -9 -10 -10 25 -2 25 -2 50 -1 57 1 6 -2
14 -7 17 -5 3 -7 -140 -5 -327z m23 168 c0 -8 -2 -15 -4 -15 -2 0 -6 7 -10 15
-3 8 -1 15 4 15 6 0 10 -7 10 -15z m-3 -1137 c-3 -8 -6 -5 -6 6 -1 11 2 17 5
13 3 -3 4 -12 1 -19z"/>
<path d="M626 3975 c-4 -16 -1 -34 7 -45 19 -27 23 -19 19 29 -5 46 -17 53
-26 16z"/>
<path d="M765 3990 c3 -5 8 -10 11 -10 2 0 4 5 4 10 0 6 -5 10 -11 10 -5 0 -7
-4 -4 -10z"/>
<path d="M2186 3978 c-13 -48 -7 -68 18 -68 13 0 26 -5 28 -10 2 -6 34 -15 71
-20 38 -6 76 -14 85 -19 9 -5 43 -6 76 -3 l58 5 -6 36 c-3 20 -6 51 -6 69 l0
32 -159 0 c-156 0 -159 0 -165 -22z"/>
<path d="M2540 3927 c0 -68 2 -75 25 -87 30 -16 28 -53 -3 -58 -30 -5 -28 -16
11 -53 41 -39 117 -66 226 -79 128 -16 171 -30 209 -67 25 -25 39 -32 55 -28
16 5 18 4 8 -3 -11 -8 -7 -13 17 -26 18 -9 34 -16 37 -16 21 1 26 -1 21 -9 -3
-4 6 -19 20 -32 20 -19 34 -23 77 -21 58 2 186 45 203 67 6 8 19 12 31 9 15
-4 23 0 28 15 3 12 14 21 24 21 10 0 30 11 45 25 27 25 34 45 16 45 -5 0 -10
7 -10 15 0 8 -7 15 -15 15 -18 0 -19 -12 -4 -27 8 -8 8 -13 0 -17 -16 -10 -31
2 -31 25 0 10 -7 19 -15 19 -8 0 -15 -4 -15 -9 0 -6 -15 -7 -34 -4 -26 4 -40
0 -58 -16 -14 -14 -32 -21 -45 -18 -13 2 -24 -2 -28 -11 -3 -8 -12 -11 -20 -8
-10 3 -15 -1 -15 -13 0 -10 -7 -21 -14 -24 -10 -4 -13 -1 -9 9 3 8 -1 14 -8
14 -12 0 -12 2 0 9 9 6 14 32 15 79 1 39 4 74 8 77 3 4 2 20 -2 36 -7 22 -5
29 6 29 8 0 14 5 14 10 0 6 -6 10 -12 10 -9 0 -8 4 2 10 10 6 11 10 3 10 -8 0
-13 12 -12 28 0 23 1 24 8 7 7 -17 9 -15 13 12 3 25 2 30 -8 22 -8 -7 -14 -6
-20 2 -4 8 -3 9 4 5 8 -5 12 1 12 14 0 12 4 19 9 16 5 -3 8 5 7 19 l-1 25
-387 0 -388 0 0 -73z m640 -19 c0 -5 -6 -8 -14 -8 -8 0 -17 -3 -19 -7 -3 -5 6
-8 19 -8 16 0 24 6 24 18 0 9 7 17 15 17 13 0 13 -4 3 -22 -7 -13 -14 -25 -15
-27 -1 -2 -28 -5 -60 -7 -32 -2 -75 -6 -96 -8 -23 -3 -35 -1 -32 4 4 6 17 10
29 10 46 0 89 13 93 29 4 16 53 24 53 9z m-67 -15 c-7 -2 -19 -2 -25 0 -7 3
-2 5 12 5 14 0 19 -2 13 -5z m-126 -49 c-3 -3 -12 -4 -19 -1 -8 3 -5 6 6 6 11
1 17 -2 13 -5z m-50 -10 c-3 -3 -12 -4 -19 -1 -8 3 -5 6 6 6 11 1 17 -2 13 -5z
m233 -10 c0 -8 -5 -12 -10 -9 -6 4 -8 11 -5 16 9 14 15 11 15 -7z m-500 -14
c0 -5 -4 -11 -10 -15 -12 -8 -61 5 -55 15 6 10 65 10 65 0z m521 -33 c-10 -9
-11 -8 -5 6 3 10 9 15 12 12 3 -3 0 -11 -7 -18z m34 -207 c3 -5 1 -10 -4 -10
-6 0 -11 5 -11 10 0 6 2 10 4 10 3 0 8 -4 11 -10z m150 -24 c-16 -13 -31 -23
-33 -21 -7 7 33 45 48 45 9 0 4 -9 -15 -24z m-265 -7 c0 -5 5 -7 12 -3 7 4 8
3 4 -4 -4 -6 -13 -9 -21 -5 -17 6 -20 23 -5 23 6 0 10 -5 10 -11z"/>
<path d="M3350 3988 c0 -11 32 -10 50 2 11 7 6 9 -17 7 -18 -1 -33 -5 -33 -9z"/>
<path d="M3560 3992 c0 -4 8 -12 18 -18 15 -10 18 -8 18 7 0 12 -7 19 -18 19
-10 0 -18 -3 -18 -8z"/>
<path d="M330 3979 c0 -5 5 -7 10 -4 6 3 10 8 10 11 0 2 -4 4 -10 4 -5 0 -10
-5 -10 -11z"/>
<path d="M3620 3950 c0 -5 4 -10 9 -10 6 0 13 5 16 10 3 6 -1 10 -9 10 -9 0
-16 -4 -16 -10z"/>
<path d="M322 3930 c-10 -17 -10 -20 3 -20 16 0 21 -25 6 -34 -5 -3 -7 -31 -4
-62 4 -48 2 -56 -11 -51 -13 5 -13 1 -1 -39 7 -24 9 -44 4 -44 -4 0 -8 -21 -7
-47 0 -31 3 -41 8 -29 5 14 9 16 14 7 4 -6 2 -18 -4 -26 -8 -10 -9 -15 -2 -15
14 0 35 37 28 49 -3 5 -6 81 -7 170 0 89 -3 161 -7 161 -4 0 -13 -9 -20 -20z
m18 -211 c0 -6 -4 -7 -10 -4 -5 3 -10 11 -10 16 0 6 5 7 10 4 6 -3 10 -11 10
-16z"/>
<path d="M13 3913 c9 -2 23 -2 30 0 6 3 -1 5 -18 5 -17 0 -22 -2 -12 -5z"/>
<path d="M446 3905 c-9 -23 -8 -25 9 -25 17 0 19 9 6 28 -7 11 -10 10 -15 -3z"/>
<path d="M3580 3904 c0 -25 26 -39 36 -21 4 7 3 8 -1 4 -5 -4 -15 3 -22 15
-12 23 -12 23 -13 2z"/>
<path d="M3670 3889 c0 -5 5 -7 10 -4 6 3 10 8 10 11 0 2 -4 4 -10 4 -5 0 -10
-5 -10 -11z"/>
<path d="M643 3861 c-9 -14 -9 -22 -2 -27 15 -9 21 1 17 26 -3 21 -3 21 -15 1z"/>
<path d="M3390 3871 c-53 -6 -54 -7 -22 -15 18 -4 36 -5 39 -2 4 3 11 2 17 -3
7 -6 20 -3 36 9 28 22 30 22 -70 11z"/>
<path d="M3568 3839 c4 -30 -6 -37 -26 -17 -15 15 -15 4 2 -52 10 -34 18 -44
32 -42 97 14 154 26 181 38 17 8 38 11 47 8 9 -3 22 -2 29 4 15 12 87 21 87
10 0 -4 5 -8 11 -8 5 0 8 4 4 9 -3 5 -1 12 5 16 5 3 10 1 10 -5 0 -6 11 -3 25
7 13 10 25 26 25 37 0 15 -3 16 -14 6 -25 -20 -118 -42 -184 -44 -41 -1 -66
-6 -71 -15 -6 -9 -11 -10 -15 -2 -4 6 -18 11 -32 11 -15 0 -24 6 -24 15 0 21
-7 19 -40 -15 -29 -29 -60 -40 -60 -20 0 6 10 10 21 10 17 0 20 4 15 23 -3 12
-6 27 -6 33 0 7 -6 14 -13 17 -10 4 -12 -3 -9 -24z"/>
<path d="M3626 3849 c-11 -11 -15 -19 -10 -19 16 0 37 17 33 27 -2 6 -13 2
-23 -8z"/>
<path d="M0 3840 c0 -5 5 -10 11 -10 5 0 7 5 4 10 -3 6 -8 10 -11 10 -2 0 -4
-4 -4 -10z"/>
<path d="M3460 3825 c-21 -12 -23 -14 -8 -20 25 -10 53 -2 53 14 0 20 -16 22
-45 6z"/>
<path d="M630 3813 c1 -18 18 -35 24 -24 4 6 4 16 1 21 -7 12 -25 13 -25 3z"/>
<path d="M3326 3784 c-8 -21 -8 -39 1 -31 3 4 11 0 18 -9 16 -23 36 3 24 34
-10 26 -34 29 -43 6z"/>
<path d="M0 3757 c0 -20 4 -37 10 -37 5 0 7 14 3 33 -8 45 -13 47 -13 4z"/>
<path d="M261 3683 c-1 -59 0 -105 3 -102 9 8 15 209 7 209 -4 0 -9 -48 -10
-107z"/>
<path d="M3963 3727 c8 -30 0 -39 -23 -27 -13 7 -27 5 -45 -4 -17 -9 -22 -16
-13 -19 10 -4 10 -6 1 -6 -7 -1 -13 -9 -13 -18 0 -15 -2 -14 -18 3 -11 11 -17
27 -14 38 5 17 1 19 -42 13 -26 -4 -57 -14 -69 -22 -12 -8 -28 -15 -36 -15
-22 0 -61 -49 -61 -78 0 -23 2 -24 38 -17 20 4 42 11 48 16 7 6 15 0 22 -16 6
-14 19 -25 28 -25 17 0 123 25 189 45 l40 12 0 69 c0 59 -3 69 -19 72 -15 3
-18 0 -13 -21z m-160 -50 c3 -7 -2 -22 -10 -32 -12 -17 -15 -18 -23 -5 -14 21
-12 30 5 30 8 0 15 5 15 10 0 14 7 12 13 -3z m153 -34 c-10 -10 -19 5 -10 18
6 11 8 11 12 0 2 -7 1 -15 -2 -18z"/>
<path d="M2449 3726 c6 -7 7 -17 3 -22 -4 -4 1 -2 11 5 21 17 21 18 -4 24 -15
4 -18 2 -10 -7z"/>
<path d="M3354 3695 c1 -27 4 -29 25 -16 12 8 12 12 -2 25 -21 22 -25 20 -23
-9z"/>
<path d="M3465 3700 c-3 -5 3 -10 14 -10 12 0 21 5 21 10 0 6 -6 10 -14 10 -8
0 -18 -4 -21 -10z"/>
<path d="M810 3690 c0 -5 5 -10 10 -10 6 0 10 5 10 10 0 6 -4 10 -10 10 -5 0
-10 -4 -10 -10z"/>
<path d="M3420 3690 c-9 -6 -10 -10 -3 -10 6 0 15 5 18 10 8 12 4 12 -15 0z"/>
<path d="M644 3675 c-6 -15 2 -35 14 -35 4 0 7 11 7 25 0 27 -12 33 -21 10z"/>
<path d="M3610 3670 c0 -5 7 -10 15 -10 8 0 15 5 15 10 0 6 -7 10 -15 10 -8 0
-15 -4 -15 -10z"/>
<path d="M1857 3652 c-25 -27 -22 -50 3 -27 16 14 20 15 20 4 0 -8 -9 -23 -21
-32 -11 -10 -19 -21 -16 -24 9 -8 44 33 55 67 10 27 10 30 -2 21 -10 -9 -15
-9 -18 -1 -2 7 -10 4 -21 -8z"/>
<path d="M430 3650 c0 -5 5 -10 10 -10 6 0 10 5 10 10 0 6 -4 10 -10 10 -5 0
-10 -4 -10 -10z"/>
<path d="M530 3640 c0 -5 7 -10 15 -10 8 0 15 5 15 10 0 6 -7 10 -15 10 -8 0
-15 -4 -15 -10z"/>
<path d="M640 3599 c0 -11 5 -17 10 -14 6 3 10 13 10 21 0 8 -4 14 -10 14 -5
0 -10 -9 -10 -21z"/>
<path d="M1740 3579 c0 -5 11 -9 25 -9 14 0 25 2 25 4 0 2 -11 6 -25 8 -14 3
-25 1 -25 -3z"/>
<path d="M260 3501 c0 -39 4 -72 9 -75 14 -9 20 31 10 75 -8 35 -7 43 8 55 17
12 17 13 -4 14 -22 0 -23 -4 -23 -69z"/>
<path d="M317 3536 c-4 -10 -1 -13 9 -9 15 6 19 23 5 23 -5 0 -11 -7 -14 -14z"/>
<path d="M640 3521 c0 -17 5 -31 10 -31 6 0 10 11 10 24 0 14 -4 28 -10 31 -6
4 -10 -7 -10 -24z"/>
<path d="M1692 3530 c5 -22 37 -24 60 -3 21 18 21 17 14 -1 -7 -19 -6 -19 14
-1 11 10 20 19 20 19 0 1 -25 2 -55 1 -44 0 -55 -3 -53 -15z"/>
<path d="M3960 3545 c0 -2 9 -9 20 -15 16 -9 18 -8 14 5 -5 13 -34 22 -34 10z"/>
<path d="M3695 3524 c-11 -9 -31 -13 -45 -11 -13 3 -37 -1 -53 -10 -24 -12
-31 -12 -45 -1 -14 11 -15 11 -9 -5 4 -11 1 -24 -8 -33 -23 -23 -18 -31 18
-27 26 3 28 1 12 -6 -18 -9 -18 -10 6 -10 14 -1 29 3 35 9 5 5 30 11 54 11 57
2 61 5 50 34 -7 18 -6 26 5 32 8 5 11 13 7 20 -5 8 -13 7 -27 -3z"/>
<path d="M2025 3520 c-3 -5 -2 -10 4 -10 5 0 13 5 16 10 3 6 2 10 -4 10 -5 0
-13 -4 -16 -10z"/>
<path d="M3950 3520 c8 -5 20 -10 25 -10 6 0 3 5 -5 10 -8 5 -19 10 -25 10 -5
0 -3 -5 5 -10z"/>
<path d="M329 3506 c-1 -3 -2 -9 -3 -13 -1 -5 -5 -14 -10 -22 -5 -8 -4 -16 5
-22 10 -6 11 -9 2 -9 -8 0 -13 -13 -13 -29 0 -17 -4 -32 -9 -36 -6 -3 -6 -17
-1 -35 5 -18 5 -30 -1 -30 -5 0 -9 8 -9 18 0 10 -7 19 -15 19 -11 0 -14 -15
-13 -68 2 -89 9 -101 44 -69 15 14 23 18 19 10 -11 -19 -47 -46 -57 -42 -12 3
-9 -13 4 -26 8 -8 8 -15 1 -24 -11 -14 -9 -472 2 -508 4 -11 11 -18 16 -15 13
9 11 53 -3 58 -10 4 -9 8 2 16 11 8 17 6 22 -7 5 -14 7 -13 7 5 1 12 5 24 10
27 21 13 36 184 18 213 -4 6 -2 15 3 18 17 11 10 546 -7 563 -7 7 -14 11 -14
8z m-37 -248 c-2 -15 -5 -28 -7 -28 -2 0 -5 13 -7 28 -2 17 1 29 7 29 6 0 9
-12 7 -29z m51 -270 c-4 -20 -11 -28 -27 -28 -20 1 -20 2 -3 14 9 7 17 26 17
42 1 22 3 25 9 14 5 -8 7 -27 4 -42z m-46 -60 c-3 -8 -6 -5 -6 6 -1 11 2 17 5
13 3 -3 4 -12 1 -19z m0 -50 c-3 -8 -6 -5 -6 6 -1 11 2 17 5 13 3 -3 4 -12 1
-19z m8 -38 c3 -5 1 -10 -4 -10 -6 0 -11 5 -11 10 0 6 2 10 4 10 3 0 8 -4 11
-10z m15 -39 c0 -4 -4 -11 -9 -16 -5 -6 -11 -23 -14 -40 -2 -19 -5 -11 -6 22
-1 43 2 51 14 47 8 -4 15 -9 15 -13z m10 -52 c0 -5 -4 -9 -10 -9 -5 0 -10 7
-10 16 0 8 5 12 10 9 6 -3 10 -10 10 -16z"/>
<path d="M3870 3500 c0 -5 13 -10 29 -10 17 0 33 5 36 10 4 6 -8 10 -29 10
-20 0 -36 -4 -36 -10z"/>
<path d="M691 3484 c0 -11 3 -14 6 -6 3 7 2 16 -1 19 -3 4 -6 -2 -5 -13z"/>
<path d="M3823 3493 c9 -2 23 -2 30 0 6 3 -1 5 -18 5 -16 0 -22 -2 -12 -5z"/>
<path d="M2940 3483 c0 -5 7 -18 15 -29 12 -16 14 -16 15 -3 0 9 -7 22 -15 29
-8 7 -15 8 -15 3z"/>
<path d="M630 3430 c0 -19 3 -21 12 -12 9 9 9 15 0 24 -9 9 -12 7 -12 -12z"/>
<path d="M3390 3410 c0 -13 18 -22 24 -11 3 5 -1 11 -9 15 -8 3 -15 1 -15 -4z"/>
<path d="M260 3394 c0 -8 5 -12 10 -9 6 3 10 10 10 16 0 5 -4 9 -10 9 -5 0
-10 -7 -10 -16z"/>
<path d="M3287 3404 c-3 -4 -20 -9 -36 -13 -47 -10 -24 -29 26 -22 37 5 40 8
29 23 -7 10 -16 15 -19 12z"/>
<path d="M3455 3400 c-3 -5 -1 -10 4 -10 6 0 11 5 11 10 0 6 -2 10 -4 10 -3 0
-8 -4 -11 -10z"/>
<path d="M3618 3379 c-21 -23 -58 -25 -58 -4 0 21 -12 19 -33 -5 -28 -33 -21
-43 23 -36 29 4 40 3 41 -6 0 -7 2 -21 4 -30 2 -10 -1 -18 -6 -18 -5 0 -9 -6
-9 -14 0 -23 30 -27 66 -10 24 11 49 15 82 11 26 -3 54 -1 63 3 8 5 41 10 73
12 32 2 60 6 63 10 2 5 15 8 27 8 31 0 48 22 42 56 -6 33 -26 57 -26 31 0 -11
-6 -17 -17 -15 -10 2 -17 -2 -16 -8 1 -6 -3 -11 -10 -11 -7 0 -21 -4 -32 -8
-11 -5 -17 -5 -13 0 4 4 1 14 -7 21 -17 18 -25 18 -25 0 0 -8 -6 -17 -12 -19
-10 -4 -10 -8 1 -15 8 -6 9 -12 3 -16 -6 -3 -16 10 -23 31 -17 55 -49 73 -49
29 0 -23 -3 -24 -72 -24 l-73 0 38 19 c20 11 37 22 37 24 0 14 -67 1 -82 -16z"/>
<path d="M628 3363 c-1 -15 -2 -38 -2 -50 -1 -12 -7 -28 -13 -34 -20 -20 -16
-49 7 -49 28 0 25 -20 -2 -21 -18 -1 -19 -2 -5 -6 14 -4 18 -13 16 -42 -2 -20
0 -42 5 -49 4 -6 3 -27 -2 -46 -8 -27 -7 -36 5 -40 8 -3 11 -2 8 4 -8 13 6 61
16 54 5 -3 9 2 9 11 0 9 -4 14 -9 11 -10 -7 -19 65 -13 106 2 15 8 25 13 22 5
-3 9 2 9 10 0 9 -3 16 -8 16 -4 0 -7 28 -7 62 0 40 -4 63 -12 65 -8 3 -14 -6
-15 -24z"/>
<path d="M3462 3363 c4 -21 28 -30 28 -10 0 9 6 18 13 20 6 3 -1 6 -16 6 -21
1 -28 -3 -25 -16z"/>
<path d="M1 3354 c0 -11 3 -14 6 -6 3 7 2 16 -1 19 -3 4 -6 -2 -5 -13z"/>
<path d="M435 3362 c-12 -12 -4 -20 15 -15 11 3 20 9 20 12 0 9 -27 10 -35 3z"/>
<path d="M693 3295 c0 -33 2 -45 4 -27 2 18 2 45 0 60 -2 15 -4 0 -4 -33z"/>
<path d="M1511 3318 c-1 -12 -8 -16 -23 -13 -12 3 -25 0 -29 -7 -4 -6 -32 -12
-63 -14 -55 -3 -116 -26 -116 -44 0 -6 -6 -10 -14 -10 -7 0 -19 -7 -26 -15
-19 -23 12 -20 43 5 14 11 34 20 44 20 10 0 23 4 29 9 7 8 149 31 186 31 4 0
6 9 5 21 -1 18 -3 19 -13 4 -11 -15 -13 -14 -17 7 -2 13 -5 16 -6 6z"/>
<path d="M3280 3326 c0 -1 11 -15 24 -30 25 -30 59 -32 64 -4 3 13 -3 16 -27
13 -17 -2 -31 0 -31 4 0 5 -7 11 -15 15 -8 3 -15 4 -15 2z"/>
<path d="M431 3293 c0 -12 3 -24 9 -28 5 -3 7 -12 3 -20 -3 -8 0 -15 6 -15 6
0 11 11 11 25 0 14 -4 25 -9 25 -5 0 -12 8 -14 18 -4 13 -5 12 -6 -5z"/>
<path d="M3270 3288 c0 -9 5 -20 11 -23 17 -11 20 0 4 21 -13 17 -14 17 -15 2z"/>
<path d="M3455 3270 c3 -5 8 -10 11 -10 2 0 4 5 4 10 0 6 -5 10 -11 10 -5 0
-7 -4 -4 -10z"/>
<path d="M3960 3256 c0 -7 -9 -16 -19 -19 -11 -3 -22 -17 -26 -36 -4 -17 -11
-31 -16 -31 -5 0 -13 -8 -17 -17 -19 -48 -66 -113 -80 -113 -10 -1 -2 -7 17
-15 39 -18 81 -18 136 -1 36 11 40 15 41 46 1 19 -2 43 -7 52 -6 10 -5 19 1
23 14 9 13 98 -2 113 -16 16 -28 15 -28 -2z m-33 -152 c2 -6 -6 -14 -19 -17
-27 -7 -32 -3 -24 18 6 18 37 17 43 -1z"/>
<path d="M755 3250 c-3 -5 -1 -10 4 -10 6 0 11 5 11 10 0 6 -2 10 -4 10 -3 0
-8 -4 -11 -10z"/>
<path d="M3476 3241 c-3 -5 8 -11 25 -13 29 -5 45 3 32 16 -9 9 -51 7 -57 -3z"/>
<path d="M3805 3230 c-30 -6 -30 -6 10 -13 62 -11 92 -8 98 8 5 11 -3 14 -36
13 -23 -1 -55 -4 -72 -8z"/>
<path d="M750 3216 c0 -8 5 -18 10 -21 6 -3 10 3 10 14 0 12 -4 21 -10 21 -5
0 -10 -6 -10 -14z"/>
<path d="M3660 3221 c0 -6 4 -11 10 -11 5 0 7 -7 3 -16 -3 -9 3 -21 16 -30 36
-26 26 -41 -35 -49 -52 -6 -57 -5 -79 20 -23 27 -23 27 -48 9 -13 -10 -33 -32
-43 -49 -19 -32 -27 -92 -13 -101 5 -3 6 -16 3 -29 -8 -32 5 -36 61 -19 27 8
85 16 129 19 69 3 83 7 105 29 21 21 22 26 8 26 -9 0 -16 3 -16 8 4 23 -3 42
-15 42 -22 0 -27 15 -12 36 12 15 16 16 29 5 19 -15 46 -8 77 19 31 27 18 37
-27 21 -27 -10 -38 -11 -41 -2 -2 6 -8 11 -13 11 -4 0 -6 -7 -2 -16 4 -12 1
-15 -12 -13 -9 2 -23 19 -29 38 -11 33 -56 75 -56 52z m38 -154 c2 -11 -3 -17
-16 -17 -26 0 -34 11 -20 27 14 17 32 12 36 -10z m17 -68 c4 -5 -8 -9 -25 -9
-17 0 -29 4 -26 8 7 11 45 12 51 1z"/>
<path d="M3357 3205 c-4 -8 -2 -17 4 -21 6 -3 8 -12 5 -20 -3 -7 -1 -16 4 -19
6 -4 10 -12 10 -18 0 -7 -4 -6 -11 3 -8 11 -9 4 -5 -27 6 -40 -6 -59 -17 -30
-3 7 -6 5 -6 -5 -1 -10 -6 -18 -12 -18 -15 0 -3 -61 13 -71 6 -4 8 -14 5 -23
-5 -13 2 -16 44 -16 45 0 50 2 44 18 -9 19 -9 33 1 80 4 18 2 32 -3 32 -6 0
-8 11 -6 24 4 17 -1 28 -16 37 -18 12 -18 15 -6 29 21 23 8 60 -20 60 -13 0
-25 -7 -28 -15z"/>
<path d="M444 3196 c-3 -8 -4 -27 -2 -43 3 -23 5 -20 9 15 5 43 2 53 -7 28z"/>
<path d="M801 3194 c0 -11 3 -14 6 -6 3 7 2 16 -1 19 -3 4 -6 -2 -5 -13z"/>
<path d="M590 3176 c0 -9 5 -16 10 -16 6 0 10 4 10 9 0 6 -4 13 -10 16 -5 3
-10 -1 -10 -9z"/>
<path d="M691 3174 c0 -11 3 -14 6 -6 3 7 2 16 -1 19 -3 4 -6 -2 -5 -13z"/>
<path d="M3326 3171 c-4 -7 -5 -15 -2 -18 9 -9 19 4 14 18 -4 11 -6 11 -12 0z"/>
<path d="M3637 3164 c-8 -8 1 -24 14 -24 5 0 9 7 9 15 0 15 -12 20 -23 9z"/>
<path d="M750 3149 c0 -5 5 -7 10 -4 6 3 10 8 10 11 0 2 -4 4 -10 4 -5 0 -10
-5 -10 -11z"/>
<path d="M2485 3136 c0 -28 10 -26 18 4 3 11 0 20 -6 20 -7 0 -12 -11 -12 -24z"/>
<path d="M2521 3134 c0 -11 3 -14 6 -6 3 7 2 16 -1 19 -3 4 -6 -2 -5 -13z"/>
<path d="M580 3120 c-8 -5 -11 -12 -8 -16 4 -3 14 1 23 10 18 17 9 21 -15 6z"/>
<path d="M439 2993 c-1 -65 0 -122 1 -128 1 -5 2 -37 1 -70 -2 -63 9 -71 14
-11 2 19 7 45 10 57 5 14 4 19 -4 15 -12 -8 -13 -1 -5 32 4 14 12 21 20 18 8
-3 13 -2 11 2 -1 5 11 20 27 35 32 30 20 36 -20 10 -22 -14 -27 -14 -34 -2 -5
8 -5 16 1 20 6 3 10 10 9 15 0 5 8 10 20 12 25 4 16 22 -11 22 -17 0 -18 3 -8
22 9 16 9 23 0 26 -6 2 -11 12 -11 23 0 10 -4 19 -10 19 -6 0 -10 -47 -11
-117z"/>
<path d="M2755 3100 c-10 -16 6 -60 22 -60 8 0 12 4 8 9 -3 5 -1 12 4 16 6 3
8 12 5 20 -7 17 -32 27 -39 15z"/>
<path d="M2814 3050 c0 -11 5 -19 11 -17 5 2 10 10 10 17 0 7 -5 15 -10 17 -6
2 -11 -6 -11 -17z"/>
<path d="M607 3006 c-4 -9 -13 -16 -22 -16 -19 0 -19 -17 0 -36 15 -15 24 -12
84 32 1 2 0 8 -4 14 -6 9 -10 9 -16 -1 -7 -11 -11 -10 -22 5 -12 17 -14 17
-20 2z"/>
<path d="M2740 2987 c0 -8 7 -18 16 -21 11 -4 14 -1 12 11 -4 21 -28 30 -28
10z"/>
<path d="M3870 2969 c-45 -7 -138 -52 -132 -63 2 -3 6 -15 9 -26 3 -11 10 -20
17 -20 26 0 56 13 56 25 0 19 45 36 59 22 9 -9 16 -9 30 0 20 12 61 7 61 -8 0
-5 7 -9 15 -9 8 0 15 9 15 20 0 12 -7 20 -17 20 -9 0 -28 10 -42 23 -23 20
-32 23 -71 16z m-10 -33 c0 -9 -30 -14 -35 -6 -4 6 3 10 14 10 12 0 21 -2 21
-4z"/>
<path d="M565 2929 c-4 -6 -5 -12 -2 -15 2 -3 7 2 10 11 7 17 1 20 -8 4z"/>
<path d="M3350 2919 c0 -5 5 -7 10 -4 6 3 10 8 10 11 0 2 -4 4 -10 4 -5 0 -10
-5 -10 -11z"/>
<path d="M514 2865 c-11 -12 -18 -28 -16 -35 3 -8 0 -10 -8 -5 -9 5 -11 4 -6
-3 4 -7 2 -12 -3 -12 -6 0 -11 -12 -11 -26 0 -14 4 -23 10 -19 6 3 10 13 10
21 0 8 12 33 26 55 29 46 28 55 -2 24z"/>
<path d="M3838 2873 c7 -3 16 -2 19 1 4 3 -2 6 -13 5 -11 0 -14 -3 -6 -6z"/>
<path d="M2542 2740 c0 -14 2 -19 5 -12 2 6 2 18 0 25 -3 6 -5 1 -5 -13z"/>
<path d="M350 2660 c0 -11 -9 -29 -20 -40 -26 -26 -25 -30 5 -30 23 0 25 4 25
45 0 25 -2 45 -5 45 -3 0 -5 -9 -5 -20z"/>
<path d="M2575 2660 c-3 -5 -1 -10 4 -10 6 0 11 5 11 10 0 6 -2 10 -4 10 -3 0
-8 -4 -11 -10z"/>
<path d="M486 2648 c3 -5 10 -6 15 -3 13 9 11 12 -6 12 -8 0 -12 -4 -9 -9z"/>
<path d="M2532 2644 c-14 -16 -5 -18 17 -5 7 5 9 11 5 14 -5 3 -15 -1 -22 -9z"/>
<path d="M3930 2637 c0 -16 -9 -28 -26 -36 -15 -6 -24 -14 -21 -18 4 -3 12 -1
19 5 8 6 33 12 58 14 47 3 47 3 -4 46 -21 17 -26 15 -26 -11z"/>
<path d="M3885 2640 c3 -5 11 -10 16 -10 6 0 7 5 4 10 -3 6 -11 10 -16 10 -6
0 -7 -4 -4 -10z"/>
<path d="M3808 2623 c7 -3 16 -2 19 1 4 3 -2 6 -13 5 -11 0 -14 -3 -6 -6z"/>
<path d="M0 2606 c0 -9 5 -16 10 -16 6 0 10 4 10 9 0 6 -4 13 -10 16 -5 3 -10
-1 -10 -9z"/>
<path d="M3823 2613 c-35 -5 -46 -23 -13 -23 13 0 18 -5 14 -15 -4 -9 0 -15 9
-15 10 0 13 7 10 20 -4 14 0 20 10 20 9 0 19 5 22 10 3 6 0 9 -7 8 -7 0 -28
-3 -45 -5z"/>
<path d="M1895 2600 c3 -5 8 -10 11 -10 2 0 4 5 4 10 0 6 -5 10 -11 10 -5 0
-7 -4 -4 -10z"/>
<path d="M2048 2603 c7 -3 16 -2 19 1 4 3 -2 6 -13 5 -11 0 -14 -3 -6 -6z"/>
<path d="M2410 2590 c0 -5 5 -10 11 -10 5 0 7 5 4 10 -3 6 -8 10 -11 10 -2 0
-4 -4 -4 -10z"/>
<path d="M1928 2583 c6 -2 18 -2 25 0 6 3 1 5 -13 5 -14 0 -19 -2 -12 -5z"/>
<path d="M3561 2579 c-15 -6 -21 -14 -17 -25 3 -9 6 -19 6 -24 0 -5 20 -7 45
-6 25 2 48 0 51 -5 3 -5 10 -9 15 -9 13 0 6 25 -7 26 -5 0 -20 6 -34 11 -22
10 -23 12 -7 18 9 4 17 11 17 16 0 11 -38 11 -69 -2z"/>
<path d="M298 2572 c-16 -3 -18 -17 -17 -130 1 -102 3 -122 12 -99 6 15 15 27
19 27 5 0 5 -12 2 -27 -9 -38 -14 -44 -26 -37 -8 5 -9 -3 -5 -26 4 -18 8 -47
8 -64 l1 -31 8 30 c6 25 8 26 9 7 0 -13 5 -21 10 -18 5 4 12 0 14 -6 4 -10 6
-10 6 0 1 7 6 10 11 7 6 -4 10 10 10 35 0 37 -2 40 -19 31 -23 -13 -29 -7 -23
24 6 35 20 41 16 7 -4 -26 -4 -26 6 3 5 17 11 81 12 144 3 106 2 114 -17 120
-11 4 -28 6 -37 3z m25 -64 c-4 -13 -12 -32 -20 -43 -11 -17 -13 -17 -13 -2 0
9 5 17 10 17 6 0 10 11 10 25 0 14 4 25 9 25 5 0 7 -10 4 -22z m-6 -90 c-3 -8
-6 -5 -6 6 -1 11 2 17 5 13 3 -3 4 -12 1 -19z"/>
<path d="M765 2570 c3 -5 -1 -10 -9 -10 -11 0 -16 -10 -16 -32 0 -30 1 -31 15
-12 13 18 14 18 15 1 0 -10 5 -15 11 -11 6 3 8 17 5 30 -4 14 -2 24 4 24 5 0
10 5 10 10 0 6 -9 10 -21 10 -11 0 -17 -4 -14 -10z"/>
<path d="M2005 2555 c21 -8 41 -12 44 -10 5 6 -47 25 -67 25 -9 -1 1 -7 23
-15z"/>
<path d="M3940 2545 c-7 -8 -8 -15 -2 -15 5 0 15 7 22 15 7 8 8 15 2 15 -5 0
-15 -7 -22 -15z"/>
<path d="M452 2525 c0 -16 2 -22 5 -12 2 9 2 23 0 30 -3 6 -5 -1 -5 -18z"/>
<path d="M2065 2540 c-3 -5 1 -10 10 -10 9 0 13 5 10 10 -3 6 -8 10 -10 10 -2
0 -7 -4 -10 -10z"/>
<path d="M2125 2539 c-29 -6 -29 -7 8 -8 20 0 40 -1 44 0 4 0 10 -8 14 -18 7
-16 8 -16 8 3 1 25 -27 34 -74 23z"/>
<path d="M2290 2540 c0 -5 5 -10 10 -10 6 0 10 5 10 10 0 6 -4 10 -10 10 -5 0
-10 -4 -10 -10z"/>
<path d="M3393 2537 c-40 -8 -53 -19 -35 -31 5 -3 27 0 50 6 38 9 44 8 61 -11
24 -27 33 -26 47 3 11 23 9 24 -35 33 -26 5 -64 5 -88 0z"/>
<path d="M2220 2530 c0 -5 5 -10 10 -10 6 0 10 5 10 10 0 6 -4 10 -10 10 -5 0
-10 -4 -10 -10z"/>
<path d="M3966 2513 c-11 -11 -6 -23 8 -23 8 0 17 4 20 9 7 10 -19 23 -28 14z"/>
<path d="M3908 2503 c7 -3 16 -2 19 1 4 3 -2 6 -13 5 -11 0 -14 -3 -6 -6z"/>
<path d="M3410 2489 c0 -6 -7 -9 -15 -5 -22 8 -18 -12 4 -24 41 -22 77 -8 65
24 -7 18 -54 22 -54 5z"/>
<path d="M450 2461 c0 -25 6 -27 13 -6 4 8 2 17 -3 20 -6 4 -10 -3 -10 -14z"/>
<path d="M742 2450 c0 -14 2 -19 5 -12 2 6 2 18 0 25 -3 6 -5 1 -5 -13z"/>
<path d="M445 2410 c-3 -5 -1 -10 4 -10 6 0 11 5 11 10 0 6 -2 10 -4 10 -3 0
-8 -4 -11 -10z"/>
<path d="M3769 2403 c-13 -17 -13 -17 6 -3 11 8 22 16 24 17 2 2 0 3 -6 3 -6
0 -17 -8 -24 -17z"/>
<path d="M3900 2390 c0 -5 9 -10 19 -10 11 0 23 5 26 10 4 6 -5 10 -19 10 -14
0 -26 -4 -26 -10z"/>
<path d="M403 2379 c-7 -7 -13 -24 -13 -37 0 -13 -4 -20 -10 -17 -6 4 -10 -25
-10 -79 0 -51 4 -86 10 -86 6 0 10 4 10 9 0 5 9 11 20 14 11 3 20 12 20 21 0
10 -6 13 -17 10 -13 -4 -14 -3 -5 3 9 7 12 33 10 92 -2 66 -5 80 -15 70z"/>
<path d="M3557 2378 c-15 -5 -25 -13 -22 -17 4 -8 -22 -23 -58 -35 -24 -8 -21
-72 3 -69 41 6 78 16 107 29 17 8 51 14 75 14 23 1 57 7 73 15 l30 15 -40 -6
c-117 -15 -125 -16 -125 -5 0 6 -5 11 -11 11 -5 0 -7 -5 -4 -10 11 -18 -23
-22 -47 -6 -18 13 -19 16 -5 16 9 0 17 5 17 10 0 6 14 10 31 10 23 0 30 4 27
17 -4 21 -16 24 -51 11z m-57 -78 c0 -5 -2 -10 -4 -10 -3 0 -8 5 -11 10 -3 6
-1 10 4 10 6 0 11 -4 11 -10z"/>
<path d="M456 2358 c-11 -36 -14 -97 -7 -123 7 -22 10 -24 10 -9 1 11 7 26 13
32 10 10 10 14 0 21 -9 5 -11 20 -6 49 6 38 -1 59 -10 30z"/>
<path d="M3400 2309 c0 -5 5 -7 10 -4 6 3 10 8 10 11 0 2 -4 4 -10 4 -5 0 -10
-5 -10 -11z"/>
<path d="M3315 2280 c-9 -10 -24 -16 -34 -13 -9 2 -23 -2 -29 -10 -10 -12 -1
-15 60 -19 86 -7 104 -3 83 19 -8 8 -20 11 -27 7 -7 -5 -9 -2 -5 8 9 24 -29
30 -48 8z"/>
<path d="M3725 2270 c3 -5 10 -10 16 -10 5 0 9 5 9 10 0 6 -7 10 -16 10 -8 0
-12 -4 -9 -10z"/>
<path d="M3786 2256 c4 -10 -9 -16 -48 -21 -44 -6 -49 -9 -30 -16 22 -9 39 -6
80 14 25 12 28 22 8 30 -10 4 -13 1 -10 -7z"/>
<path d="M3570 2225 c0 -13 8 -15 42 -10 71 11 80 24 16 25 -46 0 -58 -3 -58
-15z"/>
<path d="M165 2200 c-3 -5 -1 -10 4 -10 6 0 11 5 11 10 0 6 -2 10 -4 10 -3 0
-8 -4 -11 -10z"/>
<path d="M451 2184 c0 -11 3 -14 6 -6 3 7 2 16 -1 19 -3 4 -6 -2 -5 -13z"/>
<path d="M3293 2188 c-35 -12 -45 -28 -15 -27 20 1 62 17 47 18 -5 1 -3 6 5
11 19 12 5 11 -37 -2z"/>
<path d="M297 2173 c-4 -3 -7 -32 -7 -64 l0 -57 40 -4 c32 -3 39 -1 35 12 -3
8 -6 39 -7 67 -1 29 -6 47 -10 40 -6 -9 -8 -8 -8 3 -1 12 -3 11 -11 -2 -12
-22 -31 -24 -23 -3 6 16 2 20 -9 8z m10 -75 c-3 -8 -6 -5 -6 6 -1 11 2 17 5
13 3 -3 4 -12 1 -19z"/>
<path d="M3395 2170 c-3 -5 1 -10 9 -10 8 0 18 5 21 10 3 6 -1 10 -9 10 -8 0
-18 -4 -21 -10z"/>
<path d="M730 2143 c0 -10 4 -25 10 -33 8 -12 10 -12 16 3 7 20 -1 47 -16 47
-5 0 -10 -8 -10 -17z"/>
<path d="M463 2133 c-15 -5 -17 -23 -4 -23 5 0 11 7 15 15 3 8 4 15 3 14 -1 0
-8 -3 -14 -6z"/>
<path d="M598 2134 c-8 -8 3 -44 13 -44 5 0 4 -11 0 -23 -5 -13 -9 -32 -8 -43
2 -14 -4 -18 -20 -16 -24 3 -31 -12 -13 -23 6 -4 8 -15 5 -26 -4 -12 -1 -21 9
-25 9 -3 16 -12 16 -20 0 -17 12 -18 28 -2 8 8 8 17 1 31 -7 11 -8 34 -3 56
11 52 12 101 3 107 -5 2 -6 11 -2 19 5 14 -17 21 -29 9z"/>
<path d="M3410 2100 c24 -20 66 -28 55 -10 -3 6 -15 10 -25 10 -10 0 -22 5
-25 10 -3 6 -11 10 -17 10 -6 0 -1 -9 12 -20z"/>
<path d="M540 2100 c0 -5 5 -10 10 -10 6 0 10 5 10 10 0 6 -4 10 -10 10 -5 0
-10 -4 -10 -10z"/>
<path d="M457 2093 c-10 -19 -16 -63 -11 -77 12 -31 27 -16 21 21 -4 21 -2 42
5 50 7 9 7 13 0 13 -6 0 -13 -3 -15 -7z"/>
<path d="M3696 2043 c-10 -10 -95 -32 -127 -33 -15 0 -32 -7 -39 -15 -15 -17
-8 -19 34 -5 17 5 70 17 119 27 48 10 87 20 87 23 0 9 -65 11 -74 3z"/>
<path d="M3485 2030 c3 -5 8 -10 11 -10 2 0 4 5 4 10 0 6 -5 10 -11 10 -5 0
-7 -4 -4 -10z"/>
<path d="M3455 2010 c-3 -5 1 -10 10 -10 9 0 13 5 10 10 -3 6 -8 10 -10 10 -2
0 -7 -4 -10 -10z"/>
<path d="M3797 1904 c3 -7 9 -14 14 -14 14 0 10 17 -5 23 -10 4 -13 1 -9 -9z"/>
<path d="M3587 1883 c-17 -16 -2 -21 68 -19 47 1 79 6 87 15 11 11 7 12 -22 7
-19 -3 -39 -7 -45 -8 -5 -1 -26 2 -46 5 -19 4 -38 4 -42 0z"/>
<path d="M600 1872 c0 -14 23 -32 42 -32 16 0 16 3 6 20 -12 19 -48 28 -48 12z"/>
<path d="M3300 1864 c0 -20 39 -24 50 -5 8 16 5 18 -20 17 -17 -1 -30 -6 -30
-12z"/>
<path d="M3270 1844 c0 -8 5 -12 10 -9 6 3 10 10 10 16 0 5 -4 9 -10 9 -5 0
-10 -7 -10 -16z"/>
<path d="M3484 1849 c-7 -13 28 -19 47 -9 10 6 19 12 19 13 0 5 -62 1 -66 -4z"/>
<path d="M3390 1830 c-8 -5 -25 -10 -37 -10 -27 0 -30 -16 -5 -29 12 -6 32 -1
72 20 l55 28 -35 0 c-19 1 -42 -4 -50 -9z"/>
<path d="M3640 1810 c0 -5 5 -10 10 -10 6 0 10 5 10 10 0 6 -4 10 -10 10 -5 0
-10 -4 -10 -10z"/>
<path d="M3490 1760 c0 -6 7 -13 16 -17 8 -3 13 -12 10 -20 -3 -8 -1 -11 4 -8
6 3 10 1 10 -5 0 -7 6 -10 13 -7 6 2 22 1 34 -4 15 -6 23 -4 27 7 12 31 6 37
-34 31 -33 -4 -42 -2 -50 14 -11 20 -30 26 -30 9z"/>
<path d="M575 1730 c-4 -6 5 -10 20 -10 15 0 24 4 20 10 -3 6 -12 10 -20 10
-8 0 -17 -4 -20 -10z"/>
<path d="M510 1710 c0 -5 7 -10 15 -10 8 0 15 5 15 10 0 6 -7 10 -15 10 -8 0
-15 -4 -15 -10z"/>
<path d="M3683 1709 c14 -8 22 -8 30 0 8 8 3 11 -18 11 -26 -1 -28 -2 -12 -11z"/>
<path d="M3830 1710 c0 -5 7 -10 16 -10 8 0 12 5 9 10 -3 6 -10 10 -16 10 -5
0 -9 -4 -9 -10z"/>
<path d="M560 1700 c0 -6 7 -10 15 -10 8 0 15 2 15 4 0 2 -7 6 -15 10 -8 3
-15 1 -15 -4z"/>
<path d="M620 1700 c-13 -8 -12 -10 3 -10 9 0 17 5 17 10 0 12 -1 12 -20 0z"/>
<path d="M2792 1690 c0 -14 2 -19 5 -12 2 6 2 18 0 25 -3 6 -5 1 -5 -13z"/>
<path d="M3707 1679 c-21 -12 -92 -15 -123 -5 -14 4 -23 2 -27 -7 -7 -18 44
-24 136 -14 61 6 77 12 77 28 0 12 -40 11 -63 -2z"/>
<path d="M466 1665 c4 -8 7 -15 9 -15 2 0 5 7 9 15 3 9 0 15 -9 15 -9 0 -12
-6 -9 -15z"/>
<path d="M575 1670 c3 -5 8 -10 11 -10 2 0 4 5 4 10 0 6 -5 10 -11 10 -5 0 -7
-4 -4 -10z"/>
<path d="M617 1663 c-3 -5 -8 -32 -12 -60 -6 -45 -4 -53 9 -53 9 0 16 3 17 8
0 4 2 21 3 37 1 17 5 40 10 53 5 16 4 22 -8 22 -8 0 -17 -3 -19 -7z"/>
<path d="M3705 1620 l-30 -8 33 -1 c17 0 32 4 32 9 0 6 -1 9 -2 9 -2 -1 -16
-5 -33 -9z"/>
<path d="M3610 1610 c0 -5 7 -10 15 -10 8 0 15 5 15 10 0 6 -7 10 -15 10 -8 0
-15 -4 -15 -10z"/>
<path d="M3494 1534 c3 -9 6 -19 6 -23 0 -5 18 -20 40 -35 35 -23 41 -24 46
-11 7 18 -21 44 -48 45 -20 0 -32 16 -18 25 5 3 10 1 10 -4 0 -6 7 -11 15 -11
9 0 12 6 9 15 -4 9 -19 15 -36 15 -23 0 -29 -4 -24 -16z"/>
<path d="M3620 1540 c0 -5 9 -10 19 -10 11 0 23 5 26 10 4 6 -5 10 -19 10 -14
0 -26 -4 -26 -10z"/>
<path d="M608 1513 c6 -2 18 -2 25 0 6 3 1 5 -13 5 -14 0 -19 -2 -12 -5z"/>
<path d="M3670 1500 c-13 -8 -12 -10 3 -10 9 0 17 5 17 10 0 12 -1 12 -20 0z"/>
<path d="M555 1479 c-9 -14 -2 -20 14 -10 8 6 9 11 3 15 -6 3 -14 1 -17 -5z"/>
<path d="M3702 1451 c-11 -7 -10 -10 3 -15 19 -7 35 0 35 15 0 11 -20 12 -38
0z"/>
<path d="M711 1424 c0 -11 3 -14 6 -6 3 7 2 16 -1 19 -3 4 -6 -2 -5 -13z"/>
<path d="M3925 1380 c-22 -6 -24 -8 -9 -9 12 0 36 -4 53 -7 24 -5 31 -3 31 10
0 17 -23 19 -75 6z"/>
<path d="M3774 1362 c5 -8 66 -4 66 4 0 2 -16 4 -36 4 -19 0 -33 -4 -30 -8z"/>
<path d="M3655 1350 c3 -5 15 -10 26 -10 10 0 19 5 19 10 0 6 -12 10 -26 10
-14 0 -23 -4 -19 -10z"/>
<path d="M590 1325 c0 -8 5 -15 10 -15 6 0 10 7 10 15 0 8 -4 15 -10 15 -5 0
-10 -7 -10 -15z"/>
<path d="M3750 1290 c0 -5 6 -10 14 -10 8 0 18 5 21 10 3 6 -3 10 -14 10 -12
0 -21 -4 -21 -10z"/>
<path d="M3975 1220 c3 -5 10 -10 16 -10 5 0 9 5 9 10 0 6 -7 10 -16 10 -8 0
-12 -4 -9 -10z"/>
<path d="M20 230 c0 -5 5 -10 10 -10 6 0 10 5 10 10 0 6 -4 10 -10 10 -5 0
-10 -4 -10 -10z"/>
<path d="M920 94 c0 -17 37 -84 46 -84 6 0 -2 31 -18 73 -11 30 -28 36 -28 11z"/>
<path d="M890 76 c0 -9 5 -16 10 -16 6 0 10 4 10 9 0 6 -4 13 -10 16 -5 3 -10
-1 -10 -9z"/>
<path d="M800 72 c0 -7 -7 -12 -15 -12 -8 0 -15 -4 -15 -10 0 -16 27 -11 34 6
4 9 4 19 1 22 -3 3 -5 0 -5 -6z"/>
<path d="M80 46 c0 -14 -9 -27 -22 -34 -19 -9 -6 -11 65 -11 87 -1 94 2 78 28
-7 11 -13 12 -24 3 -11 -9 -18 -8 -33 6 -11 10 -29 21 -42 24 -18 5 -22 2 -22
-16z"/>
<path d="M540 10 c0 -5 5 -10 10 -10 6 0 10 5 10 10 0 6 -4 10 -10 10 -5 0
-10 -4 -10 -10z"/>
</g>
</svg>
